<mxfile host="app.diagrams.net" modified="2023-11-03T07:35:03.768Z" agent="Mozilla/5.0 (Windows NT 10.0; Win64; x64) AppleWebKit/537.36 (KHTML, like Gecko) Chrome/114.0.0.0 Safari/537.36 Edg/114.0.1823.58" etag="6Unnvk03ECoMkwXQkDGS" version="22.0.8" type="device">
  <diagram name="Page-1" id="uCAmReVkE0Y7DWCVOrXH">
    <mxGraphModel dx="736" dy="700" grid="1" gridSize="10" guides="1" tooltips="1" connect="1" arrows="1" fold="1" page="1" pageScale="1" pageWidth="850" pageHeight="1100" math="0" shadow="0">
      <root>
        <mxCell id="0" />
        <mxCell id="1" parent="0" />
        <mxCell id="U_seq89SvIfnm0BxQjWQ-76" value="" style="rounded=0;whiteSpace=wrap;html=1;fillColor=none;strokeColor=#ff0080;strokeWidth=5;" parent="1" vertex="1">
          <mxGeometry x="9.96" y="150" width="1810.04" height="510" as="geometry" />
        </mxCell>
        <mxCell id="U_seq89SvIfnm0BxQjWQ-72" style="edgeStyle=orthogonalEdgeStyle;rounded=0;orthogonalLoop=1;jettySize=auto;html=1;exitX=1;exitY=0.5;exitDx=0;exitDy=0;entryX=0;entryY=0.75;entryDx=0;entryDy=0;strokeColor=#00aaff;strokeWidth=3;" parent="1" source="TZYWT3lJkHQqS_gbnJa5-10" target="G-ZYmDcAasmDePGd7KIV-39" edge="1">
          <mxGeometry relative="1" as="geometry">
            <Array as="points">
              <mxPoint x="520" y="360" />
              <mxPoint x="520" y="880" />
            </Array>
          </mxGeometry>
        </mxCell>
        <mxCell id="k5BJldiz395Oj-r77fWC-80" value="" style="rounded=0;whiteSpace=wrap;html=1;fillColor=none;strokeColor=#ff0080;strokeWidth=5;dashed=1;" parent="1" vertex="1">
          <mxGeometry x="489.96" y="240" width="210" height="240" as="geometry" />
        </mxCell>
        <mxCell id="U_seq89SvIfnm0BxQjWQ-27" style="edgeStyle=orthogonalEdgeStyle;rounded=0;orthogonalLoop=1;jettySize=auto;html=1;exitX=1;exitY=0.5;exitDx=0;exitDy=0;entryX=0;entryY=0.5;entryDx=0;entryDy=0;strokeColor=#8000ff;" parent="1" source="TZYWT3lJkHQqS_gbnJa5-10" target="U_seq89SvIfnm0BxQjWQ-24" edge="1">
          <mxGeometry relative="1" as="geometry">
            <Array as="points">
              <mxPoint x="520" y="360" />
              <mxPoint x="520" y="960" />
            </Array>
          </mxGeometry>
        </mxCell>
        <mxCell id="U_seq89SvIfnm0BxQjWQ-28" style="edgeStyle=orthogonalEdgeStyle;rounded=0;orthogonalLoop=1;jettySize=auto;html=1;exitX=1;exitY=0.5;exitDx=0;exitDy=0;entryX=0;entryY=0.5;entryDx=0;entryDy=0;strokeColor=#8000ff;" parent="1" source="TZYWT3lJkHQqS_gbnJa5-10" target="U_seq89SvIfnm0BxQjWQ-25" edge="1">
          <mxGeometry relative="1" as="geometry">
            <Array as="points">
              <mxPoint x="520" y="360" />
              <mxPoint x="520" y="1000" />
            </Array>
          </mxGeometry>
        </mxCell>
        <mxCell id="U_seq89SvIfnm0BxQjWQ-29" style="edgeStyle=orthogonalEdgeStyle;rounded=0;orthogonalLoop=1;jettySize=auto;html=1;exitX=1;exitY=0.5;exitDx=0;exitDy=0;entryX=0;entryY=0.5;entryDx=0;entryDy=0;strokeColor=#8000ff;" parent="1" source="TZYWT3lJkHQqS_gbnJa5-10" target="U_seq89SvIfnm0BxQjWQ-26" edge="1">
          <mxGeometry relative="1" as="geometry">
            <Array as="points">
              <mxPoint x="520" y="360" />
              <mxPoint x="520" y="1040" />
            </Array>
          </mxGeometry>
        </mxCell>
        <mxCell id="U_seq89SvIfnm0BxQjWQ-20" value="" style="rounded=0;whiteSpace=wrap;html=1;fillColor=none;strokeColor=#ff0080;strokeWidth=5;dashed=1;" parent="1" vertex="1">
          <mxGeometry x="809.96" y="240" width="400.04" height="340" as="geometry" />
        </mxCell>
        <mxCell id="U_seq89SvIfnm0BxQjWQ-18" style="edgeStyle=orthogonalEdgeStyle;rounded=0;orthogonalLoop=1;jettySize=auto;html=1;exitX=1;exitY=0.5;exitDx=0;exitDy=0;entryX=0.75;entryY=1;entryDx=0;entryDy=0;fontColor=#000000;strokeColor=#8000ff;" parent="1" source="k5BJldiz395Oj-r77fWC-27" target="k5BJldiz395Oj-r77fWC-39" edge="1">
          <mxGeometry relative="1" as="geometry">
            <Array as="points">
              <mxPoint x="1340" y="330" />
              <mxPoint x="1340" y="620" />
              <mxPoint x="920" y="620" />
              <mxPoint x="920" y="325" />
            </Array>
          </mxGeometry>
        </mxCell>
        <mxCell id="U_seq89SvIfnm0BxQjWQ-19" style="edgeStyle=orthogonalEdgeStyle;rounded=0;orthogonalLoop=1;jettySize=auto;html=1;exitX=1;exitY=0.5;exitDx=0;exitDy=0;entryX=0.75;entryY=1;entryDx=0;entryDy=0;fontColor=#000000;strokeColor=#8000ff;" parent="1" source="k5BJldiz395Oj-r77fWC-27" target="k5BJldiz395Oj-r77fWC-34" edge="1">
          <mxGeometry relative="1" as="geometry">
            <Array as="points">
              <mxPoint x="1340" y="330" />
              <mxPoint x="1340" y="620" />
              <mxPoint x="920" y="620" />
              <mxPoint x="920" y="395" />
            </Array>
          </mxGeometry>
        </mxCell>
        <mxCell id="U_seq89SvIfnm0BxQjWQ-16" style="edgeStyle=orthogonalEdgeStyle;rounded=0;orthogonalLoop=1;jettySize=auto;html=1;exitX=0.5;exitY=0;exitDx=0;exitDy=0;entryX=1;entryY=1;entryDx=0;entryDy=0;fontColor=#000000;strokeColor=#8000ff;" parent="1" source="k5BJldiz395Oj-r77fWC-73" target="k5BJldiz395Oj-r77fWC-39" edge="1">
          <mxGeometry relative="1" as="geometry">
            <Array as="points">
              <mxPoint x="1800" y="420" />
              <mxPoint x="1800" y="600" />
              <mxPoint x="940" y="600" />
              <mxPoint x="940" y="340" />
            </Array>
          </mxGeometry>
        </mxCell>
        <mxCell id="U_seq89SvIfnm0BxQjWQ-17" style="edgeStyle=orthogonalEdgeStyle;rounded=0;orthogonalLoop=1;jettySize=auto;html=1;exitX=0.5;exitY=0;exitDx=0;exitDy=0;entryX=1;entryY=1;entryDx=0;entryDy=0;fontColor=#000000;strokeColor=#8000ff;" parent="1" source="k5BJldiz395Oj-r77fWC-73" target="k5BJldiz395Oj-r77fWC-34" edge="1">
          <mxGeometry relative="1" as="geometry">
            <Array as="points">
              <mxPoint x="1800" y="420" />
              <mxPoint x="1800" y="600" />
              <mxPoint x="940" y="600" />
              <mxPoint x="940" y="410" />
            </Array>
          </mxGeometry>
        </mxCell>
        <mxCell id="k5BJldiz395Oj-r77fWC-84" value="" style="rounded=0;whiteSpace=wrap;html=1;fillColor=none;strokeColor=#ff0080;strokeWidth=5;dashed=1;" parent="1" vertex="1">
          <mxGeometry x="1690" y="240" width="90" height="340" as="geometry" />
        </mxCell>
        <mxCell id="k5BJldiz395Oj-r77fWC-79" value="" style="rounded=0;whiteSpace=wrap;html=1;fillColor=none;strokeColor=#ff0080;strokeWidth=5;dashed=1;" parent="1" vertex="1">
          <mxGeometry x="49.96" y="240" width="330" height="240" as="geometry" />
        </mxCell>
        <mxCell id="k5BJldiz395Oj-r77fWC-82" value="" style="rounded=0;whiteSpace=wrap;html=1;fillColor=none;strokeColor=#ff0080;strokeWidth=5;dashed=1;" parent="1" vertex="1">
          <mxGeometry x="1320" y="240" width="240" height="340" as="geometry" />
        </mxCell>
        <mxCell id="k5BJldiz395Oj-r77fWC-87" value="IF" style="text;html=1;strokeColor=none;fillColor=none;align=left;verticalAlign=middle;whiteSpace=wrap;rounded=0;fontStyle=1;fontSize=36;fontColor=#ff0080;" parent="1" vertex="1">
          <mxGeometry x="45" y="202" width="60" height="30" as="geometry" />
        </mxCell>
        <mxCell id="k5BJldiz395Oj-r77fWC-88" value="ID" style="text;html=1;strokeColor=none;fillColor=none;align=left;verticalAlign=middle;whiteSpace=wrap;rounded=0;fontStyle=1;fontSize=36;fontColor=#ff0080;" parent="1" vertex="1">
          <mxGeometry x="485" y="202" width="60" height="30" as="geometry" />
        </mxCell>
        <mxCell id="k5BJldiz395Oj-r77fWC-89" value="EX" style="text;html=1;strokeColor=none;fillColor=none;align=left;verticalAlign=middle;whiteSpace=wrap;rounded=0;fontStyle=1;fontSize=36;fontColor=#ff0080;" parent="1" vertex="1">
          <mxGeometry x="804.96" y="202" width="60" height="30" as="geometry" />
        </mxCell>
        <mxCell id="k5BJldiz395Oj-r77fWC-90" value="MEM" style="text;html=1;strokeColor=none;fillColor=none;align=left;verticalAlign=middle;whiteSpace=wrap;rounded=0;fontStyle=1;fontSize=36;fontColor=#ff0080;" parent="1" vertex="1">
          <mxGeometry x="1315.04" y="202" width="60" height="30" as="geometry" />
        </mxCell>
        <mxCell id="k5BJldiz395Oj-r77fWC-91" value="WB" style="text;html=1;strokeColor=none;fillColor=none;align=left;verticalAlign=middle;whiteSpace=wrap;rounded=0;fontStyle=1;fontSize=36;fontColor=#ff0080;" parent="1" vertex="1">
          <mxGeometry x="1685.04" y="202" width="60" height="30" as="geometry" />
        </mxCell>
        <mxCell id="G-ZYmDcAasmDePGd7KIV-1" style="edgeStyle=orthogonalEdgeStyle;rounded=0;orthogonalLoop=1;jettySize=auto;html=1;exitX=1;exitY=0.5;exitDx=0;exitDy=0;entryX=0;entryY=0.5;entryDx=0;entryDy=0;strokeColor=#00aaff;" parent="1" source="TZYWT3lJkHQqS_gbnJa5-10" target="k5BJldiz395Oj-r77fWC-102" edge="1">
          <mxGeometry relative="1" as="geometry">
            <Array as="points">
              <mxPoint x="520" y="360" />
              <mxPoint x="520" y="70" />
            </Array>
          </mxGeometry>
        </mxCell>
        <mxCell id="TZYWT3lJkHQqS_gbnJa5-12" style="edgeStyle=orthogonalEdgeStyle;rounded=0;orthogonalLoop=1;jettySize=auto;html=1;exitX=1;exitY=0.5;exitDx=0;exitDy=0;entryX=0;entryY=0.5;entryDx=0;entryDy=0;" parent="1" source="TZYWT3lJkHQqS_gbnJa5-1" target="TZYWT3lJkHQqS_gbnJa5-10" edge="1">
          <mxGeometry relative="1" as="geometry" />
        </mxCell>
        <mxCell id="U_seq89SvIfnm0BxQjWQ-56" value="addr[32]&lt;br style=&quot;font-size: 10px;&quot;&gt;read" style="edgeStyle=orthogonalEdgeStyle;rounded=0;orthogonalLoop=1;jettySize=auto;html=1;exitX=0.75;exitY=1;exitDx=0;exitDy=0;entryX=0.75;entryY=0;entryDx=0;entryDy=0;strokeColor=#ff8000;fontColor=#ff8000;fontFamily=Lucida Console;fontSize=10;strokeWidth=3;" parent="1" source="TZYWT3lJkHQqS_gbnJa5-1" target="U_seq89SvIfnm0BxQjWQ-54" edge="1">
          <mxGeometry relative="1" as="geometry" />
        </mxCell>
        <mxCell id="TZYWT3lJkHQqS_gbnJa5-1" value="Instruction&lt;br style=&quot;font-size: 20px;&quot;&gt;Cache" style="rounded=0;whiteSpace=wrap;html=1;fontStyle=0;fontSize=20;strokeWidth=2;strokeColor=#ff8000;fontColor=#ff8000;" parent="1" vertex="1">
          <mxGeometry x="239.96" y="300" width="120" height="120" as="geometry" />
        </mxCell>
        <mxCell id="TZYWT3lJkHQqS_gbnJa5-6" style="edgeStyle=orthogonalEdgeStyle;rounded=0;orthogonalLoop=1;jettySize=auto;html=1;exitX=1;exitY=0.5;exitDx=0;exitDy=0;entryX=1;entryY=0.5;entryDx=0;entryDy=0;" parent="1" source="TZYWT3lJkHQqS_gbnJa5-2" target="TZYWT3lJkHQqS_gbnJa5-5" edge="1">
          <mxGeometry relative="1" as="geometry" />
        </mxCell>
        <mxCell id="TZYWT3lJkHQqS_gbnJa5-9" style="edgeStyle=orthogonalEdgeStyle;rounded=0;orthogonalLoop=1;jettySize=auto;html=1;exitX=1;exitY=0.5;exitDx=0;exitDy=0;entryX=0;entryY=0.5;entryDx=0;entryDy=0;" parent="1" source="TZYWT3lJkHQqS_gbnJa5-2" target="TZYWT3lJkHQqS_gbnJa5-1" edge="1">
          <mxGeometry relative="1" as="geometry" />
        </mxCell>
        <mxCell id="k5BJldiz395Oj-r77fWC-2" style="edgeStyle=orthogonalEdgeStyle;rounded=0;orthogonalLoop=1;jettySize=auto;html=1;exitX=1;exitY=0.5;exitDx=0;exitDy=0;entryX=0;entryY=0.5;entryDx=0;entryDy=0;" parent="1" source="TZYWT3lJkHQqS_gbnJa5-2" target="k5BJldiz395Oj-r77fWC-1" edge="1">
          <mxGeometry relative="1" as="geometry">
            <Array as="points">
              <mxPoint x="219.96" y="360" />
              <mxPoint x="219.96" y="270" />
            </Array>
          </mxGeometry>
        </mxCell>
        <mxCell id="TZYWT3lJkHQqS_gbnJa5-2" value="PC&lt;br&gt;32&#39;" style="rounded=0;whiteSpace=wrap;html=1;fontStyle=1" parent="1" vertex="1">
          <mxGeometry x="149.96" y="340" width="50" height="40" as="geometry" />
        </mxCell>
        <mxCell id="TZYWT3lJkHQqS_gbnJa5-11" style="edgeStyle=orthogonalEdgeStyle;rounded=0;orthogonalLoop=1;jettySize=auto;html=1;exitX=0.5;exitY=0;exitDx=0;exitDy=0;entryX=0;entryY=0.5;entryDx=0;entryDy=0;" parent="1" source="TZYWT3lJkHQqS_gbnJa5-3" target="TZYWT3lJkHQqS_gbnJa5-2" edge="1">
          <mxGeometry relative="1" as="geometry" />
        </mxCell>
        <mxCell id="TZYWT3lJkHQqS_gbnJa5-3" value="PCMUX" style="shape=trapezoid;perimeter=trapezoidPerimeter;whiteSpace=wrap;html=1;fixedSize=1;rotation=90;size=10;fontSize=9;" parent="1" vertex="1">
          <mxGeometry x="69.96000000000001" y="350" width="60" height="20" as="geometry" />
        </mxCell>
        <mxCell id="TZYWT3lJkHQqS_gbnJa5-7" style="edgeStyle=orthogonalEdgeStyle;rounded=0;orthogonalLoop=1;jettySize=auto;html=1;exitX=0;exitY=0.5;exitDx=0;exitDy=0;entryX=0.25;entryY=1;entryDx=0;entryDy=0;" parent="1" source="TZYWT3lJkHQqS_gbnJa5-5" target="TZYWT3lJkHQqS_gbnJa5-3" edge="1">
          <mxGeometry relative="1" as="geometry">
            <Array as="points">
              <mxPoint x="69.96000000000001" y="270" />
              <mxPoint x="69.96000000000001" y="345" />
            </Array>
          </mxGeometry>
        </mxCell>
        <mxCell id="TZYWT3lJkHQqS_gbnJa5-5" value="+4" style="ellipse;whiteSpace=wrap;html=1;aspect=fixed;fontSize=15;" parent="1" vertex="1">
          <mxGeometry x="129.96" y="255" width="30" height="30" as="geometry" />
        </mxCell>
        <mxCell id="k5BJldiz395Oj-r77fWC-5" style="edgeStyle=orthogonalEdgeStyle;rounded=0;orthogonalLoop=1;jettySize=auto;html=1;exitX=1;exitY=0.5;exitDx=0;exitDy=0;entryX=0;entryY=0.25;entryDx=0;entryDy=0;" parent="1" source="TZYWT3lJkHQqS_gbnJa5-10" target="k5BJldiz395Oj-r77fWC-4" edge="1">
          <mxGeometry relative="1" as="geometry">
            <Array as="points">
              <mxPoint x="519.96" y="360" />
              <mxPoint x="519.96" y="330" />
            </Array>
          </mxGeometry>
        </mxCell>
        <mxCell id="k5BJldiz395Oj-r77fWC-14" style="edgeStyle=orthogonalEdgeStyle;rounded=0;orthogonalLoop=1;jettySize=auto;html=1;exitX=1;exitY=0.5;exitDx=0;exitDy=0;entryX=0;entryY=0.5;entryDx=0;entryDy=0;" parent="1" source="TZYWT3lJkHQqS_gbnJa5-10" target="k5BJldiz395Oj-r77fWC-11" edge="1">
          <mxGeometry relative="1" as="geometry">
            <Array as="points">
              <mxPoint x="519.96" y="360" />
              <mxPoint x="519.96" y="450" />
            </Array>
          </mxGeometry>
        </mxCell>
        <mxCell id="TZYWT3lJkHQqS_gbnJa5-10" value="IF:IR&lt;br&gt;32&#39;" style="rounded=0;whiteSpace=wrap;html=1;fontStyle=1" parent="1" vertex="1">
          <mxGeometry x="409.96" y="340" width="50" height="40" as="geometry" />
        </mxCell>
        <mxCell id="k5BJldiz395Oj-r77fWC-7" style="edgeStyle=orthogonalEdgeStyle;rounded=0;orthogonalLoop=1;jettySize=auto;html=1;exitX=1;exitY=0.5;exitDx=0;exitDy=0;entryX=0;entryY=0.5;entryDx=0;entryDy=0;" parent="1" source="k5BJldiz395Oj-r77fWC-1" target="k5BJldiz395Oj-r77fWC-6" edge="1">
          <mxGeometry relative="1" as="geometry" />
        </mxCell>
        <mxCell id="k5BJldiz395Oj-r77fWC-1" value="IF:PC&lt;br&gt;32&#39;" style="rounded=0;whiteSpace=wrap;html=1;fontStyle=1" parent="1" vertex="1">
          <mxGeometry x="409.96" y="250" width="50" height="40" as="geometry" />
        </mxCell>
        <mxCell id="k5BJldiz395Oj-r77fWC-9" style="edgeStyle=orthogonalEdgeStyle;rounded=0;orthogonalLoop=1;jettySize=auto;html=1;exitX=1;exitY=0.25;exitDx=0;exitDy=0;entryX=0;entryY=0.5;entryDx=0;entryDy=0;" parent="1" source="k5BJldiz395Oj-r77fWC-4" target="k5BJldiz395Oj-r77fWC-8" edge="1">
          <mxGeometry relative="1" as="geometry" />
        </mxCell>
        <mxCell id="k5BJldiz395Oj-r77fWC-12" style="edgeStyle=orthogonalEdgeStyle;rounded=0;orthogonalLoop=1;jettySize=auto;html=1;exitX=1;exitY=0.75;exitDx=0;exitDy=0;entryX=0;entryY=0.5;entryDx=0;entryDy=0;" parent="1" source="k5BJldiz395Oj-r77fWC-4" target="k5BJldiz395Oj-r77fWC-10" edge="1">
          <mxGeometry relative="1" as="geometry" />
        </mxCell>
        <mxCell id="k5BJldiz395Oj-r77fWC-4" value="Register&lt;br&gt;File" style="rounded=0;whiteSpace=wrap;html=1;fontStyle=0;fontSize=20;strokeWidth=2;" parent="1" vertex="1">
          <mxGeometry x="559.96" y="300" width="120" height="120" as="geometry" />
        </mxCell>
        <mxCell id="k5BJldiz395Oj-r77fWC-45" style="edgeStyle=orthogonalEdgeStyle;rounded=0;orthogonalLoop=1;jettySize=auto;html=1;exitX=1;exitY=0.5;exitDx=0;exitDy=0;entryX=0;entryY=0.5;entryDx=0;entryDy=0;" parent="1" source="k5BJldiz395Oj-r77fWC-6" target="k5BJldiz395Oj-r77fWC-26" edge="1">
          <mxGeometry relative="1" as="geometry">
            <mxPoint x="789.96" y="270" as="sourcePoint" />
          </mxGeometry>
        </mxCell>
        <mxCell id="U_seq89SvIfnm0BxQjWQ-11" style="edgeStyle=orthogonalEdgeStyle;rounded=0;orthogonalLoop=1;jettySize=auto;html=1;exitX=1;exitY=0.5;exitDx=0;exitDy=0;entryX=0.25;entryY=1;entryDx=0;entryDy=0;" parent="1" source="k5BJldiz395Oj-r77fWC-6" target="k5BJldiz395Oj-r77fWC-39" edge="1">
          <mxGeometry relative="1" as="geometry" />
        </mxCell>
        <mxCell id="k5BJldiz395Oj-r77fWC-6" value="ID:PC&lt;br&gt;32&#39;" style="rounded=0;whiteSpace=wrap;html=1;fontStyle=1" parent="1" vertex="1">
          <mxGeometry x="729.96" y="250" width="50" height="40" as="geometry" />
        </mxCell>
        <mxCell id="k5BJldiz395Oj-r77fWC-25" style="edgeStyle=orthogonalEdgeStyle;rounded=0;orthogonalLoop=1;jettySize=auto;html=1;exitX=1;exitY=0.5;exitDx=0;exitDy=0;entryX=0.25;entryY=1;entryDx=0;entryDy=0;" parent="1" source="k5BJldiz395Oj-r77fWC-8" target="k5BJldiz395Oj-r77fWC-23" edge="1">
          <mxGeometry relative="1" as="geometry">
            <mxPoint x="789.96" y="330" as="sourcePoint" />
            <Array as="points">
              <mxPoint x="840" y="330" />
              <mxPoint x="840" y="490" />
            </Array>
          </mxGeometry>
        </mxCell>
        <mxCell id="U_seq89SvIfnm0BxQjWQ-12" style="edgeStyle=orthogonalEdgeStyle;rounded=0;orthogonalLoop=1;jettySize=auto;html=1;exitX=1;exitY=0.5;exitDx=0;exitDy=0;entryX=0.5;entryY=1;entryDx=0;entryDy=0;" parent="1" source="k5BJldiz395Oj-r77fWC-8" target="k5BJldiz395Oj-r77fWC-39" edge="1">
          <mxGeometry relative="1" as="geometry">
            <Array as="points">
              <mxPoint x="840" y="330" />
              <mxPoint x="840" y="310" />
            </Array>
          </mxGeometry>
        </mxCell>
        <mxCell id="k5BJldiz395Oj-r77fWC-8" value="ID:R1&lt;br&gt;32&#39;" style="rounded=0;whiteSpace=wrap;html=1;fontStyle=1" parent="1" vertex="1">
          <mxGeometry x="729.96" y="310" width="50" height="40" as="geometry" />
        </mxCell>
        <mxCell id="k5BJldiz395Oj-r77fWC-31" style="edgeStyle=orthogonalEdgeStyle;rounded=0;orthogonalLoop=1;jettySize=auto;html=1;exitX=1;exitY=0.5;exitDx=0;exitDy=0;entryX=0;entryY=0.5;entryDx=0;entryDy=0;" parent="1" target="k5BJldiz395Oj-r77fWC-28" edge="1">
          <mxGeometry relative="1" as="geometry">
            <mxPoint x="789.96" y="390" as="sourcePoint" />
            <Array as="points">
              <mxPoint x="830" y="390" />
              <mxPoint x="830" y="430" />
              <mxPoint x="1190" y="430" />
              <mxPoint x="1190" y="390" />
            </Array>
          </mxGeometry>
        </mxCell>
        <mxCell id="k5BJldiz395Oj-r77fWC-37" style="edgeStyle=orthogonalEdgeStyle;rounded=0;orthogonalLoop=1;jettySize=auto;html=1;exitX=1;exitY=0.5;exitDx=0;exitDy=0;entryX=0.75;entryY=1;entryDx=0;entryDy=0;" parent="1" source="k5BJldiz395Oj-r77fWC-10" target="k5BJldiz395Oj-r77fWC-18" edge="1">
          <mxGeometry relative="1" as="geometry">
            <mxPoint x="789.96" y="390" as="sourcePoint" />
            <Array as="points">
              <mxPoint x="829.96" y="390" />
              <mxPoint x="829.96" y="545" />
            </Array>
          </mxGeometry>
        </mxCell>
        <mxCell id="U_seq89SvIfnm0BxQjWQ-14" style="edgeStyle=orthogonalEdgeStyle;rounded=0;orthogonalLoop=1;jettySize=auto;html=1;exitX=1;exitY=0.5;exitDx=0;exitDy=0;entryX=0.5;entryY=1;entryDx=0;entryDy=0;" parent="1" source="k5BJldiz395Oj-r77fWC-10" target="k5BJldiz395Oj-r77fWC-34" edge="1">
          <mxGeometry relative="1" as="geometry">
            <Array as="points">
              <mxPoint x="830" y="390" />
              <mxPoint x="830" y="380" />
            </Array>
          </mxGeometry>
        </mxCell>
        <mxCell id="k5BJldiz395Oj-r77fWC-10" value="ID:R2&lt;br&gt;32&#39;" style="rounded=0;whiteSpace=wrap;html=1;fontStyle=1" parent="1" vertex="1">
          <mxGeometry x="729.96" y="370" width="50" height="40" as="geometry" />
        </mxCell>
        <mxCell id="k5BJldiz395Oj-r77fWC-20" style="edgeStyle=orthogonalEdgeStyle;rounded=0;orthogonalLoop=1;jettySize=auto;html=1;exitX=1;exitY=0.5;exitDx=0;exitDy=0;entryX=0;entryY=0.5;entryDx=0;entryDy=0;" parent="1" source="k5BJldiz395Oj-r77fWC-11" target="k5BJldiz395Oj-r77fWC-19" edge="1">
          <mxGeometry relative="1" as="geometry">
            <mxPoint x="789.96" y="450" as="sourcePoint" />
          </mxGeometry>
        </mxCell>
        <mxCell id="k5BJldiz395Oj-r77fWC-11" value="ID:IR&lt;br&gt;32&#39;" style="rounded=0;whiteSpace=wrap;html=1;fontStyle=1" parent="1" vertex="1">
          <mxGeometry x="729.96" y="430" width="50" height="40" as="geometry" />
        </mxCell>
        <mxCell id="k5BJldiz395Oj-r77fWC-24" style="edgeStyle=orthogonalEdgeStyle;rounded=0;orthogonalLoop=1;jettySize=auto;html=1;exitX=0.5;exitY=0;exitDx=0;exitDy=0;entryX=0.75;entryY=1;entryDx=0;entryDy=0;" parent="1" source="k5BJldiz395Oj-r77fWC-18" target="k5BJldiz395Oj-r77fWC-23" edge="1">
          <mxGeometry relative="1" as="geometry" />
        </mxCell>
        <mxCell id="k5BJldiz395Oj-r77fWC-18" value="CMPMUX" style="shape=trapezoid;perimeter=trapezoidPerimeter;whiteSpace=wrap;html=1;fixedSize=1;rotation=90;size=10;fontSize=9;" parent="1" vertex="1">
          <mxGeometry x="979.96" y="520" width="60" height="20" as="geometry" />
        </mxCell>
        <mxCell id="k5BJldiz395Oj-r77fWC-38" style="edgeStyle=orthogonalEdgeStyle;rounded=0;orthogonalLoop=1;jettySize=auto;html=1;exitX=1;exitY=0.5;exitDx=0;exitDy=0;entryX=0.25;entryY=1;entryDx=0;entryDy=0;" parent="1" source="k5BJldiz395Oj-r77fWC-19" target="k5BJldiz395Oj-r77fWC-18" edge="1">
          <mxGeometry relative="1" as="geometry">
            <Array as="points">
              <mxPoint x="960" y="450" />
              <mxPoint x="960" y="515" />
            </Array>
          </mxGeometry>
        </mxCell>
        <mxCell id="k5BJldiz395Oj-r77fWC-42" style="edgeStyle=orthogonalEdgeStyle;rounded=0;orthogonalLoop=1;jettySize=auto;html=1;exitX=1;exitY=0.5;exitDx=0;exitDy=0;entryX=0;entryY=0.5;entryDx=0;entryDy=0;" parent="1" source="k5BJldiz395Oj-r77fWC-19" target="k5BJldiz395Oj-r77fWC-29" edge="1">
          <mxGeometry relative="1" as="geometry" />
        </mxCell>
        <mxCell id="U_seq89SvIfnm0BxQjWQ-13" style="edgeStyle=orthogonalEdgeStyle;rounded=0;orthogonalLoop=1;jettySize=auto;html=1;exitX=1;exitY=0.5;exitDx=0;exitDy=0;entryX=0.25;entryY=1;entryDx=0;entryDy=0;" parent="1" source="k5BJldiz395Oj-r77fWC-19" target="k5BJldiz395Oj-r77fWC-34" edge="1">
          <mxGeometry relative="1" as="geometry">
            <mxPoint x="904.96" y="450" as="sourcePoint" />
            <mxPoint x="954.96" y="365" as="targetPoint" />
            <Array as="points">
              <mxPoint x="960" y="450" />
              <mxPoint x="960" y="365" />
            </Array>
          </mxGeometry>
        </mxCell>
        <mxCell id="k5BJldiz395Oj-r77fWC-19" value="Immediate&lt;br style=&quot;font-size: 6px;&quot;&gt;Translator" style="rounded=0;whiteSpace=wrap;html=1;fontStyle=0;fontSize=6;" parent="1" vertex="1">
          <mxGeometry x="859.96" y="440" width="40" height="20" as="geometry" />
        </mxCell>
        <mxCell id="k5BJldiz395Oj-r77fWC-41" style="edgeStyle=orthogonalEdgeStyle;rounded=0;orthogonalLoop=1;jettySize=auto;html=1;exitX=0.5;exitY=0;exitDx=0;exitDy=0;entryX=0;entryY=0.5;entryDx=0;entryDy=0;" parent="1" source="k5BJldiz395Oj-r77fWC-23" target="k5BJldiz395Oj-r77fWC-30" edge="1">
          <mxGeometry relative="1" as="geometry" />
        </mxCell>
        <mxCell id="U_seq89SvIfnm0BxQjWQ-4" style="edgeStyle=orthogonalEdgeStyle;rounded=0;orthogonalLoop=1;jettySize=auto;html=1;exitX=0.5;exitY=0;exitDx=0;exitDy=0;entryX=0.75;entryY=1;entryDx=0;entryDy=0;" parent="1" source="k5BJldiz395Oj-r77fWC-23" target="U_seq89SvIfnm0BxQjWQ-1" edge="1">
          <mxGeometry relative="1" as="geometry">
            <Array as="points">
              <mxPoint x="1110" y="510" />
              <mxPoint x="1110" y="558" />
            </Array>
          </mxGeometry>
        </mxCell>
        <mxCell id="k5BJldiz395Oj-r77fWC-23" value="CMP" style="rounded=0;whiteSpace=wrap;html=1;fontStyle=0;fontSize=16;rotation=90;strokeWidth=2;" parent="1" vertex="1">
          <mxGeometry x="1034.96" y="495" width="80" height="30" as="geometry" />
        </mxCell>
        <mxCell id="k5BJldiz395Oj-r77fWC-59" style="edgeStyle=elbowEdgeStyle;rounded=0;orthogonalLoop=1;jettySize=auto;html=1;exitX=1;exitY=0.5;exitDx=0;exitDy=0;entryX=0.25;entryY=1;entryDx=0;entryDy=0;" parent="1" source="k5BJldiz395Oj-r77fWC-26" target="k5BJldiz395Oj-r77fWC-58" edge="1">
          <mxGeometry relative="1" as="geometry">
            <Array as="points">
              <mxPoint x="1340" y="290" />
            </Array>
          </mxGeometry>
        </mxCell>
        <mxCell id="gd78JNTZqdq3sEy_yZhr-3" style="edgeStyle=orthogonalEdgeStyle;rounded=0;orthogonalLoop=1;jettySize=auto;html=1;exitX=1;exitY=0.5;exitDx=0;exitDy=0;entryX=0;entryY=0.5;entryDx=0;entryDy=0;" parent="1" source="k5BJldiz395Oj-r77fWC-26" target="gd78JNTZqdq3sEy_yZhr-2" edge="1">
          <mxGeometry relative="1" as="geometry" />
        </mxCell>
        <mxCell id="k5BJldiz395Oj-r77fWC-26" value="EX:PC&lt;br&gt;32&#39;" style="rounded=0;whiteSpace=wrap;html=1;fontStyle=1" parent="1" vertex="1">
          <mxGeometry x="1240" y="250" width="50" height="40" as="geometry" />
        </mxCell>
        <mxCell id="k5BJldiz395Oj-r77fWC-60" style="edgeStyle=elbowEdgeStyle;rounded=0;orthogonalLoop=1;jettySize=auto;html=1;exitX=1;exitY=0.5;exitDx=0;exitDy=0;entryX=0.75;entryY=1;entryDx=0;entryDy=0;" parent="1" source="k5BJldiz395Oj-r77fWC-27" target="k5BJldiz395Oj-r77fWC-58" edge="1">
          <mxGeometry relative="1" as="geometry" />
        </mxCell>
        <mxCell id="k5BJldiz395Oj-r77fWC-70" style="edgeStyle=orthogonalEdgeStyle;rounded=0;orthogonalLoop=1;jettySize=auto;html=1;exitX=1;exitY=0.5;exitDx=0;exitDy=0;entryX=0;entryY=0.5;entryDx=0;entryDy=0;elbow=vertical;" parent="1" source="k5BJldiz395Oj-r77fWC-27" target="k5BJldiz395Oj-r77fWC-67" edge="1">
          <mxGeometry relative="1" as="geometry">
            <Array as="points">
              <mxPoint x="1340" y="330" />
              <mxPoint x="1340" y="430" />
              <mxPoint x="1572" y="430" />
              <mxPoint x="1572" y="390" />
            </Array>
          </mxGeometry>
        </mxCell>
        <mxCell id="k5BJldiz395Oj-r77fWC-27" value="EX:ALU&lt;br&gt;32&#39;" style="rounded=0;whiteSpace=wrap;html=1;fontStyle=1" parent="1" vertex="1">
          <mxGeometry x="1240" y="310" width="50" height="40" as="geometry" />
        </mxCell>
        <mxCell id="k5BJldiz395Oj-r77fWC-64" style="edgeStyle=elbowEdgeStyle;rounded=0;orthogonalLoop=1;jettySize=auto;html=1;exitX=1;exitY=0.5;exitDx=0;exitDy=0;entryX=0;entryY=0.75;entryDx=0;entryDy=0;" parent="1" source="k5BJldiz395Oj-r77fWC-28" target="k5BJldiz395Oj-r77fWC-62" edge="1">
          <mxGeometry relative="1" as="geometry" />
        </mxCell>
        <mxCell id="k5BJldiz395Oj-r77fWC-28" value="EX:MDR&lt;br&gt;32&#39;" style="rounded=0;whiteSpace=wrap;html=1;fontStyle=1" parent="1" vertex="1">
          <mxGeometry x="1240" y="370" width="50" height="40" as="geometry" />
        </mxCell>
        <mxCell id="k5BJldiz395Oj-r77fWC-71" style="edgeStyle=elbowEdgeStyle;rounded=0;orthogonalLoop=1;jettySize=auto;html=1;exitX=1;exitY=0.5;exitDx=0;exitDy=0;entryX=0;entryY=0.5;entryDx=0;entryDy=0;" parent="1" source="k5BJldiz395Oj-r77fWC-29" target="k5BJldiz395Oj-r77fWC-65" edge="1">
          <mxGeometry relative="1" as="geometry" />
        </mxCell>
        <mxCell id="k5BJldiz395Oj-r77fWC-29" value="EX:UIM&lt;br&gt;32&#39;" style="rounded=0;whiteSpace=wrap;html=1;fontStyle=1" parent="1" vertex="1">
          <mxGeometry x="1240" y="430" width="50" height="40" as="geometry" />
        </mxCell>
        <mxCell id="k5BJldiz395Oj-r77fWC-72" style="edgeStyle=elbowEdgeStyle;rounded=0;orthogonalLoop=1;jettySize=auto;html=1;exitX=1;exitY=0.5;exitDx=0;exitDy=0;entryX=0;entryY=0.5;entryDx=0;entryDy=0;" parent="1" source="k5BJldiz395Oj-r77fWC-30" target="k5BJldiz395Oj-r77fWC-66" edge="1">
          <mxGeometry relative="1" as="geometry" />
        </mxCell>
        <mxCell id="k5BJldiz395Oj-r77fWC-30" value="EX:CMP&lt;br&gt;1&#39;" style="rounded=0;whiteSpace=wrap;html=1;fontStyle=1" parent="1" vertex="1">
          <mxGeometry x="1240" y="490" width="50" height="40" as="geometry" />
        </mxCell>
        <mxCell id="k5BJldiz395Oj-r77fWC-33" style="edgeStyle=orthogonalEdgeStyle;rounded=0;orthogonalLoop=1;jettySize=auto;html=1;exitX=0.5;exitY=0;exitDx=0;exitDy=0;entryX=0;entryY=0.5;entryDx=0;entryDy=0;" parent="1" source="k5BJldiz395Oj-r77fWC-32" target="k5BJldiz395Oj-r77fWC-27" edge="1">
          <mxGeometry relative="1" as="geometry" />
        </mxCell>
        <mxCell id="k5BJldiz395Oj-r77fWC-57" style="edgeStyle=orthogonalEdgeStyle;rounded=0;orthogonalLoop=1;jettySize=auto;html=1;exitX=0.5;exitY=0;exitDx=0;exitDy=0;entryX=0.75;entryY=1;entryDx=0;entryDy=0;" parent="1" source="k5BJldiz395Oj-r77fWC-32" target="TZYWT3lJkHQqS_gbnJa5-3" edge="1">
          <mxGeometry relative="1" as="geometry">
            <Array as="points">
              <mxPoint x="1190" y="330" />
              <mxPoint x="1190" y="195" />
              <mxPoint x="30" y="195" />
              <mxPoint x="30" y="375" />
            </Array>
          </mxGeometry>
        </mxCell>
        <mxCell id="k5BJldiz395Oj-r77fWC-32" value="ALU" style="rounded=0;whiteSpace=wrap;html=1;fontStyle=0;fontSize=16;rotation=90;strokeWidth=2;" parent="1" vertex="1">
          <mxGeometry x="1034.96" y="315" width="80" height="30" as="geometry" />
        </mxCell>
        <mxCell id="k5BJldiz395Oj-r77fWC-35" style="edgeStyle=orthogonalEdgeStyle;rounded=0;orthogonalLoop=1;jettySize=auto;html=1;exitX=0.5;exitY=0;exitDx=0;exitDy=0;entryX=0.75;entryY=1;entryDx=0;entryDy=0;" parent="1" source="k5BJldiz395Oj-r77fWC-34" target="k5BJldiz395Oj-r77fWC-32" edge="1">
          <mxGeometry relative="1" as="geometry" />
        </mxCell>
        <mxCell id="k5BJldiz395Oj-r77fWC-34" value="ALUMUX2" style="shape=trapezoid;perimeter=trapezoidPerimeter;whiteSpace=wrap;html=1;fixedSize=1;rotation=90;size=10;fontSize=9;" parent="1" vertex="1">
          <mxGeometry x="979.96" y="370" width="60" height="20" as="geometry" />
        </mxCell>
        <mxCell id="k5BJldiz395Oj-r77fWC-40" style="edgeStyle=orthogonalEdgeStyle;rounded=0;orthogonalLoop=1;jettySize=auto;html=1;exitX=0.5;exitY=0;exitDx=0;exitDy=0;entryX=0.25;entryY=1;entryDx=0;entryDy=0;" parent="1" source="k5BJldiz395Oj-r77fWC-39" target="k5BJldiz395Oj-r77fWC-32" edge="1">
          <mxGeometry relative="1" as="geometry" />
        </mxCell>
        <mxCell id="k5BJldiz395Oj-r77fWC-39" value="ALUMUX1" style="shape=trapezoid;perimeter=trapezoidPerimeter;whiteSpace=wrap;html=1;fixedSize=1;rotation=90;size=10;fontSize=9;" parent="1" vertex="1">
          <mxGeometry x="979.96" y="300" width="60" height="20" as="geometry" />
        </mxCell>
        <mxCell id="k5BJldiz395Oj-r77fWC-52" value="&lt;font style=&quot;font-size: 6px;&quot; face=&quot;Lucida Console&quot;&gt;*_imm&lt;/font&gt;" style="text;html=1;strokeColor=none;fillColor=none;align=center;verticalAlign=middle;whiteSpace=wrap;rounded=0;" parent="1" vertex="1">
          <mxGeometry x="961.96" y="354" width="20" height="10" as="geometry" />
        </mxCell>
        <mxCell id="k5BJldiz395Oj-r77fWC-53" value="&lt;font style=&quot;font-size: 6px;&quot; face=&quot;Lucida Console&quot;&gt;u_imm&lt;/font&gt;" style="text;html=1;strokeColor=none;fillColor=none;align=center;verticalAlign=middle;whiteSpace=wrap;rounded=0;" parent="1" vertex="1">
          <mxGeometry x="961.96" y="439" width="20" height="10" as="geometry" />
        </mxCell>
        <mxCell id="k5BJldiz395Oj-r77fWC-54" value="&lt;font style=&quot;font-size: 6px;&quot; face=&quot;Lucida Console&quot;&gt;i_imm&lt;/font&gt;" style="text;html=1;strokeColor=none;fillColor=none;align=center;verticalAlign=middle;whiteSpace=wrap;rounded=0;" parent="1" vertex="1">
          <mxGeometry x="961.96" y="504" width="20" height="10" as="geometry" />
        </mxCell>
        <mxCell id="k5BJldiz395Oj-r77fWC-55" value="&lt;font style=&quot;font-size: 6px;&quot; face=&quot;Lucida Console&quot;&gt;ID:R2&lt;/font&gt;" style="text;html=1;strokeColor=none;fillColor=none;align=center;verticalAlign=middle;whiteSpace=wrap;rounded=0;" parent="1" vertex="1">
          <mxGeometry x="961.96" y="534" width="20" height="10" as="geometry" />
        </mxCell>
        <mxCell id="k5BJldiz395Oj-r77fWC-56" value="&lt;font style=&quot;font-size: 6px;&quot; face=&quot;Lucida Console&quot;&gt;ID:R1&lt;/font&gt;" style="text;html=1;strokeColor=none;fillColor=none;align=center;verticalAlign=middle;whiteSpace=wrap;rounded=0;" parent="1" vertex="1">
          <mxGeometry x="961.96" y="479" width="20" height="10" as="geometry" />
        </mxCell>
        <mxCell id="k5BJldiz395Oj-r77fWC-63" style="edgeStyle=elbowEdgeStyle;rounded=0;orthogonalLoop=1;jettySize=auto;html=1;exitX=0.5;exitY=0;exitDx=0;exitDy=0;entryX=0;entryY=0.25;entryDx=0;entryDy=0;" parent="1" source="k5BJldiz395Oj-r77fWC-58" target="k5BJldiz395Oj-r77fWC-62" edge="1">
          <mxGeometry relative="1" as="geometry" />
        </mxCell>
        <mxCell id="k5BJldiz395Oj-r77fWC-58" value="MARMUX" style="shape=trapezoid;perimeter=trapezoidPerimeter;whiteSpace=wrap;html=1;fixedSize=1;rotation=90;size=10;fontSize=9;" parent="1" vertex="1">
          <mxGeometry x="1340" y="305" width="60" height="20" as="geometry" />
        </mxCell>
        <mxCell id="k5BJldiz395Oj-r77fWC-61" value="&lt;font style=&quot;font-size: 6px;&quot; face=&quot;Lucida Console&quot;&gt;ID:R2&lt;/font&gt;" style="text;html=1;strokeColor=none;fillColor=none;align=center;verticalAlign=middle;whiteSpace=wrap;rounded=0;" parent="1" vertex="1">
          <mxGeometry x="961.96" y="407" width="20" height="10" as="geometry" />
        </mxCell>
        <mxCell id="k5BJldiz395Oj-r77fWC-69" style="edgeStyle=elbowEdgeStyle;rounded=0;orthogonalLoop=1;jettySize=auto;html=1;exitX=1;exitY=0.5;exitDx=0;exitDy=0;entryX=0;entryY=0.5;entryDx=0;entryDy=0;" parent="1" source="k5BJldiz395Oj-r77fWC-62" target="k5BJldiz395Oj-r77fWC-68" edge="1">
          <mxGeometry relative="1" as="geometry">
            <Array as="points">
              <mxPoint x="1572" y="346" />
            </Array>
          </mxGeometry>
        </mxCell>
        <mxCell id="U_seq89SvIfnm0BxQjWQ-59" value="addr[32]&amp;nbsp; wdata[256] read write" style="edgeStyle=orthogonalEdgeStyle;rounded=0;orthogonalLoop=1;jettySize=auto;html=1;exitX=0.25;exitY=1;exitDx=0;exitDy=0;entryX=0.75;entryY=1;entryDx=0;entryDy=0;strokeColor=#ff8000;fontColor=#ff8000;fontFamily=Lucida Console;fontSize=10;strokeWidth=3;" parent="1" edge="1">
          <mxGeometry relative="1" as="geometry">
            <mxPoint x="1450" y="410" as="sourcePoint" />
            <mxPoint x="329.96000000000004" y="880" as="targetPoint" />
            <Array as="points">
              <mxPoint x="1450" y="1070" />
              <mxPoint x="330" y="1070" />
            </Array>
          </mxGeometry>
        </mxCell>
        <mxCell id="U_seq89SvIfnm0BxQjWQ-60" value="rdata[256] resp" style="edgeStyle=orthogonalEdgeStyle;rounded=0;orthogonalLoop=1;jettySize=auto;html=1;entryX=0.75;entryY=1;entryDx=0;entryDy=0;strokeColor=#ff8000;fontColor=#ff8000;fontFamily=Lucida Console;exitX=0.25;exitY=1;exitDx=0;exitDy=0;fontSize=10;strokeWidth=3;" parent="1" source="U_seq89SvIfnm0BxQjWQ-54" target="k5BJldiz395Oj-r77fWC-62" edge="1">
          <mxGeometry relative="1" as="geometry">
            <mxPoint x="290" y="870" as="sourcePoint" />
            <Array as="points">
              <mxPoint x="270" y="1090" />
              <mxPoint x="1510" y="1090" />
            </Array>
          </mxGeometry>
        </mxCell>
        <mxCell id="k5BJldiz395Oj-r77fWC-62" value="Data&lt;br&gt;Cache" style="rounded=0;whiteSpace=wrap;html=1;fontStyle=0;fontSize=20;strokeWidth=2;strokeColor=#ff8000;fontColor=#ff8000;" parent="1" vertex="1">
          <mxGeometry x="1420" y="300" width="120" height="120" as="geometry" />
        </mxCell>
        <mxCell id="k5BJldiz395Oj-r77fWC-76" style="edgeStyle=elbowEdgeStyle;rounded=0;orthogonalLoop=1;jettySize=auto;html=1;exitX=1;exitY=0.5;exitDx=0;exitDy=0;" parent="1" source="k5BJldiz395Oj-r77fWC-65" edge="1">
          <mxGeometry relative="1" as="geometry">
            <mxPoint x="1740.04" y="430" as="targetPoint" />
            <Array as="points">
              <mxPoint x="1710" y="440" />
            </Array>
          </mxGeometry>
        </mxCell>
        <mxCell id="k5BJldiz395Oj-r77fWC-65" value="MEM:UIM&lt;br&gt;32&#39;" style="rounded=0;whiteSpace=wrap;html=1;fontStyle=1" parent="1" vertex="1">
          <mxGeometry x="1590" y="430" width="70" height="40" as="geometry" />
        </mxCell>
        <mxCell id="k5BJldiz395Oj-r77fWC-77" style="edgeStyle=elbowEdgeStyle;rounded=0;orthogonalLoop=1;jettySize=auto;html=1;exitX=1;exitY=0.5;exitDx=0;exitDy=0;" parent="1" source="k5BJldiz395Oj-r77fWC-66" edge="1">
          <mxGeometry relative="1" as="geometry">
            <mxPoint x="1740.04" y="450" as="targetPoint" />
            <Array as="points">
              <mxPoint x="1720" y="480" />
            </Array>
          </mxGeometry>
        </mxCell>
        <mxCell id="k5BJldiz395Oj-r77fWC-101" value="ZEXT" style="edgeLabel;html=1;align=left;verticalAlign=middle;resizable=0;points=[];fontSize=10;" parent="k5BJldiz395Oj-r77fWC-77" vertex="1" connectable="0">
          <mxGeometry x="-0.2893" relative="1" as="geometry">
            <mxPoint as="offset" />
          </mxGeometry>
        </mxCell>
        <mxCell id="k5BJldiz395Oj-r77fWC-66" value="MEM:CMP&lt;br&gt;1&#39;" style="rounded=0;whiteSpace=wrap;html=1;fontStyle=1" parent="1" vertex="1">
          <mxGeometry x="1590" y="490" width="70" height="40" as="geometry" />
        </mxCell>
        <mxCell id="k5BJldiz395Oj-r77fWC-75" style="edgeStyle=elbowEdgeStyle;rounded=0;orthogonalLoop=1;jettySize=auto;html=1;exitX=1;exitY=0.5;exitDx=0;exitDy=0;" parent="1" source="k5BJldiz395Oj-r77fWC-67" edge="1">
          <mxGeometry relative="1" as="geometry">
            <mxPoint x="1740.04" y="410" as="targetPoint" />
            <Array as="points">
              <mxPoint x="1710" y="400" />
            </Array>
          </mxGeometry>
        </mxCell>
        <mxCell id="k5BJldiz395Oj-r77fWC-67" value="MEM:ALU&lt;br&gt;32&#39;" style="rounded=0;whiteSpace=wrap;html=1;fontStyle=1" parent="1" vertex="1">
          <mxGeometry x="1590" y="370" width="70" height="40" as="geometry" />
        </mxCell>
        <mxCell id="k5BJldiz395Oj-r77fWC-74" style="edgeStyle=elbowEdgeStyle;rounded=0;orthogonalLoop=1;jettySize=auto;html=1;exitX=1;exitY=0.5;exitDx=0;exitDy=0;" parent="1" source="k5BJldiz395Oj-r77fWC-68" edge="1">
          <mxGeometry relative="1" as="geometry">
            <mxPoint x="1740.04" y="390" as="targetPoint" />
            <Array as="points">
              <mxPoint x="1720" y="360" />
              <mxPoint x="1720" y="360" />
            </Array>
          </mxGeometry>
        </mxCell>
        <mxCell id="k5BJldiz395Oj-r77fWC-68" value="MEM:MDR&lt;br&gt;32&#39;" style="rounded=0;whiteSpace=wrap;html=1;fontStyle=1" parent="1" vertex="1">
          <mxGeometry x="1590" y="310" width="70" height="40" as="geometry" />
        </mxCell>
        <mxCell id="k5BJldiz395Oj-r77fWC-78" style="edgeStyle=orthogonalEdgeStyle;rounded=0;orthogonalLoop=1;jettySize=auto;html=1;exitX=0.5;exitY=0;exitDx=0;exitDy=0;entryX=0;entryY=0.75;entryDx=0;entryDy=0;" parent="1" source="k5BJldiz395Oj-r77fWC-73" target="k5BJldiz395Oj-r77fWC-4" edge="1">
          <mxGeometry relative="1" as="geometry">
            <Array as="points">
              <mxPoint x="1800" y="420" />
              <mxPoint x="1800" y="600" />
              <mxPoint x="540" y="600" />
              <mxPoint x="540" y="390" />
            </Array>
          </mxGeometry>
        </mxCell>
        <mxCell id="k5BJldiz395Oj-r77fWC-73" value="REGFILEMUX" style="shape=trapezoid;perimeter=trapezoidPerimeter;whiteSpace=wrap;html=1;fixedSize=1;rotation=90;size=10;fontSize=9;" parent="1" vertex="1">
          <mxGeometry x="1710.04" y="410" width="80" height="20" as="geometry" />
        </mxCell>
        <mxCell id="k5BJldiz395Oj-r77fWC-92" value="&lt;font style=&quot;font-size: 8px;&quot; face=&quot;Lucida Console&quot;&gt;addr&lt;/font&gt;" style="text;html=1;strokeColor=none;fillColor=none;align=left;verticalAlign=middle;whiteSpace=wrap;rounded=0;" parent="1" vertex="1">
          <mxGeometry x="239.96" y="356" width="30" height="10" as="geometry" />
        </mxCell>
        <mxCell id="k5BJldiz395Oj-r77fWC-93" value="&lt;font style=&quot;font-size: 8px;&quot; face=&quot;Lucida Console&quot;&gt;rdata&lt;/font&gt;" style="text;html=1;strokeColor=none;fillColor=none;align=right;verticalAlign=middle;whiteSpace=wrap;rounded=0;" parent="1" vertex="1">
          <mxGeometry x="329.96000000000004" y="356" width="30" height="10" as="geometry" />
        </mxCell>
        <mxCell id="k5BJldiz395Oj-r77fWC-94" value="&lt;font style=&quot;font-size: 8px;&quot; face=&quot;Lucida Console&quot;&gt;rs1/rs2&lt;br&gt;&lt;/font&gt;" style="text;html=1;strokeColor=none;fillColor=none;align=left;verticalAlign=middle;whiteSpace=wrap;rounded=0;" parent="1" vertex="1">
          <mxGeometry x="559.96" y="324" width="30" height="10" as="geometry" />
        </mxCell>
        <mxCell id="k5BJldiz395Oj-r77fWC-95" value="&lt;font style=&quot;font-size: 8px;&quot; face=&quot;Lucida Console&quot;&gt;in&lt;br&gt;&lt;/font&gt;" style="text;html=1;strokeColor=none;fillColor=none;align=left;verticalAlign=middle;whiteSpace=wrap;rounded=0;" parent="1" vertex="1">
          <mxGeometry x="559.96" y="384" width="30" height="10" as="geometry" />
        </mxCell>
        <mxCell id="k5BJldiz395Oj-r77fWC-96" value="&lt;font style=&quot;font-size: 8px;&quot; face=&quot;Lucida Console&quot;&gt;rs1_out&lt;br&gt;&lt;/font&gt;" style="text;html=1;strokeColor=none;fillColor=none;align=right;verticalAlign=middle;whiteSpace=wrap;rounded=0;" parent="1" vertex="1">
          <mxGeometry x="649.96" y="325" width="30" height="10" as="geometry" />
        </mxCell>
        <mxCell id="k5BJldiz395Oj-r77fWC-97" value="&lt;font style=&quot;font-size: 8px;&quot; face=&quot;Lucida Console&quot;&gt;rs2_out&lt;br&gt;&lt;/font&gt;" style="text;html=1;strokeColor=none;fillColor=none;align=right;verticalAlign=middle;whiteSpace=wrap;rounded=0;" parent="1" vertex="1">
          <mxGeometry x="649.96" y="384" width="30" height="10" as="geometry" />
        </mxCell>
        <mxCell id="k5BJldiz395Oj-r77fWC-98" value="&lt;font style=&quot;font-size: 8px;&quot; face=&quot;Lucida Console&quot;&gt;addr&lt;br&gt;&lt;/font&gt;" style="text;html=1;strokeColor=none;fillColor=none;align=left;verticalAlign=middle;whiteSpace=wrap;rounded=0;" parent="1" vertex="1">
          <mxGeometry x="1420" y="324" width="30" height="10" as="geometry" />
        </mxCell>
        <mxCell id="k5BJldiz395Oj-r77fWC-99" value="&lt;font style=&quot;font-size: 8px;&quot; face=&quot;Lucida Console&quot;&gt;wdata&lt;br&gt;&lt;/font&gt;" style="text;html=1;strokeColor=none;fillColor=none;align=left;verticalAlign=middle;whiteSpace=wrap;rounded=0;" parent="1" vertex="1">
          <mxGeometry x="1420" y="384" width="30" height="10" as="geometry" />
        </mxCell>
        <mxCell id="k5BJldiz395Oj-r77fWC-100" value="&lt;font style=&quot;font-size: 8px;&quot; face=&quot;Lucida Console&quot;&gt;rdata&lt;br&gt;&lt;/font&gt;" style="text;html=1;strokeColor=none;fillColor=none;align=right;verticalAlign=middle;whiteSpace=wrap;rounded=0;" parent="1" vertex="1">
          <mxGeometry x="1510" y="354" width="30" height="10" as="geometry" />
        </mxCell>
        <mxCell id="G-ZYmDcAasmDePGd7KIV-9" style="edgeStyle=orthogonalEdgeStyle;rounded=0;orthogonalLoop=1;jettySize=auto;html=1;exitX=1;exitY=0.5;exitDx=0;exitDy=0;entryX=0;entryY=0.5;entryDx=0;entryDy=0;strokeColor=#00aaff;" parent="1" source="k5BJldiz395Oj-r77fWC-102" target="G-ZYmDcAasmDePGd7KIV-6" edge="1">
          <mxGeometry relative="1" as="geometry" />
        </mxCell>
        <mxCell id="k5BJldiz395Oj-r77fWC-102" value="Control&lt;br&gt;Word&lt;br&gt;Translator" style="rounded=0;whiteSpace=wrap;html=1;fontStyle=0;fontSize=20;strokeWidth=2;fontColor=#00aaff;strokeColor=#00aaff;" parent="1" vertex="1">
          <mxGeometry x="559.96" y="10" width="120" height="120" as="geometry" />
        </mxCell>
        <mxCell id="G-ZYmDcAasmDePGd7KIV-17" style="edgeStyle=orthogonalEdgeStyle;rounded=0;orthogonalLoop=1;jettySize=auto;html=1;exitX=1;exitY=0.5;exitDx=0;exitDy=0;strokeColor=#00aaff;entryX=0.5;entryY=0;entryDx=0;entryDy=0;" parent="1" source="G-ZYmDcAasmDePGd7KIV-2" target="U_seq89SvIfnm0BxQjWQ-20" edge="1">
          <mxGeometry relative="1" as="geometry">
            <mxPoint x="950" y="220" as="targetPoint" />
            <Array as="points">
              <mxPoint x="1010" y="110" />
            </Array>
          </mxGeometry>
        </mxCell>
        <mxCell id="U_seq89SvIfnm0BxQjWQ-2" style="edgeStyle=orthogonalEdgeStyle;rounded=0;orthogonalLoop=1;jettySize=auto;html=1;exitX=1;exitY=0.5;exitDx=0;exitDy=0;strokeColor=#00aaff;entryX=0.25;entryY=1;entryDx=0;entryDy=0;" parent="1" source="G-ZYmDcAasmDePGd7KIV-2" target="U_seq89SvIfnm0BxQjWQ-1" edge="1">
          <mxGeometry relative="1" as="geometry">
            <Array as="points">
              <mxPoint x="1130" y="110" />
              <mxPoint x="1130" y="533" />
            </Array>
          </mxGeometry>
        </mxCell>
        <mxCell id="U_seq89SvIfnm0BxQjWQ-3" style="edgeStyle=orthogonalEdgeStyle;rounded=0;orthogonalLoop=1;jettySize=auto;html=1;exitX=1;exitY=0.5;exitDx=0;exitDy=0;entryX=0;entryY=0.5;entryDx=0;entryDy=0;strokeColor=#00aaff;" parent="1" source="G-ZYmDcAasmDePGd7KIV-2" target="U_seq89SvIfnm0BxQjWQ-1" edge="1">
          <mxGeometry relative="1" as="geometry" />
        </mxCell>
        <mxCell id="G-ZYmDcAasmDePGd7KIV-2" value="CtrlEX" style="rounded=0;whiteSpace=wrap;html=1;fontStyle=1;strokeColor=#00aaff;fontColor=#00aaff;fontSize=10;" parent="1" vertex="1">
          <mxGeometry x="729.96" y="100" width="50" height="20" as="geometry" />
        </mxCell>
        <mxCell id="G-ZYmDcAasmDePGd7KIV-18" style="edgeStyle=orthogonalEdgeStyle;rounded=0;orthogonalLoop=1;jettySize=auto;html=1;exitX=1;exitY=0.5;exitDx=0;exitDy=0;entryX=0;entryY=0.5;entryDx=0;entryDy=0;strokeColor=#00aaff;" parent="1" source="G-ZYmDcAasmDePGd7KIV-6" target="G-ZYmDcAasmDePGd7KIV-14" edge="1">
          <mxGeometry relative="1" as="geometry">
            <Array as="points">
              <mxPoint x="1180" y="70" />
              <mxPoint x="1180" y="110" />
            </Array>
          </mxGeometry>
        </mxCell>
        <mxCell id="U_seq89SvIfnm0BxQjWQ-47" style="edgeStyle=orthogonalEdgeStyle;rounded=0;orthogonalLoop=1;jettySize=auto;html=1;exitX=1;exitY=0.5;exitDx=0;exitDy=0;entryX=0;entryY=0.5;entryDx=0;entryDy=0;strokeColor=#00aaff;" parent="1" source="G-ZYmDcAasmDePGd7KIV-6" target="U_seq89SvIfnm0BxQjWQ-43" edge="1">
          <mxGeometry relative="1" as="geometry">
            <Array as="points">
              <mxPoint x="800" y="70" />
              <mxPoint x="800" y="680" />
              <mxPoint x="890" y="680" />
              <mxPoint x="890" y="790" />
              <mxPoint x="950" y="790" />
              <mxPoint x="950" y="940" />
              <mxPoint x="1030" y="940" />
            </Array>
          </mxGeometry>
        </mxCell>
        <mxCell id="G-ZYmDcAasmDePGd7KIV-6" value="CtrlMEM" style="rounded=0;whiteSpace=wrap;html=1;fontStyle=1;strokeColor=#00aaff;fontColor=#00aaff;fontSize=10;" parent="1" vertex="1">
          <mxGeometry x="729.96" y="60" width="50" height="20" as="geometry" />
        </mxCell>
        <mxCell id="G-ZYmDcAasmDePGd7KIV-19" style="edgeStyle=orthogonalEdgeStyle;rounded=0;orthogonalLoop=1;jettySize=auto;html=1;exitX=1;exitY=0.5;exitDx=0;exitDy=0;entryX=0;entryY=0.5;entryDx=0;entryDy=0;strokeColor=#00aaff;" parent="1" source="G-ZYmDcAasmDePGd7KIV-7" target="G-ZYmDcAasmDePGd7KIV-15" edge="1">
          <mxGeometry relative="1" as="geometry">
            <Array as="points">
              <mxPoint x="1200" y="30" />
              <mxPoint x="1200" y="70" />
            </Array>
          </mxGeometry>
        </mxCell>
        <mxCell id="U_seq89SvIfnm0BxQjWQ-73" style="edgeStyle=orthogonalEdgeStyle;rounded=0;orthogonalLoop=1;jettySize=auto;html=1;exitX=1;exitY=0.5;exitDx=0;exitDy=0;entryX=0;entryY=0.25;entryDx=0;entryDy=0;strokeColor=#00aaff;strokeWidth=3;" parent="1" source="G-ZYmDcAasmDePGd7KIV-7" target="G-ZYmDcAasmDePGd7KIV-39" edge="1">
          <mxGeometry relative="1" as="geometry">
            <Array as="points">
              <mxPoint x="790" y="30" />
              <mxPoint x="790" y="680" />
              <mxPoint x="670" y="680" />
              <mxPoint x="670" y="820" />
            </Array>
          </mxGeometry>
        </mxCell>
        <mxCell id="G-ZYmDcAasmDePGd7KIV-7" value="CtrlWB" style="rounded=0;whiteSpace=wrap;html=1;fontStyle=1;strokeColor=#00aaff;fontColor=#00aaff;fontSize=10;" parent="1" vertex="1">
          <mxGeometry x="729.96" y="20" width="50" height="20" as="geometry" />
        </mxCell>
        <mxCell id="G-ZYmDcAasmDePGd7KIV-11" style="edgeStyle=orthogonalEdgeStyle;rounded=0;orthogonalLoop=1;jettySize=auto;html=1;exitX=1;exitY=0.5;exitDx=0;exitDy=0;entryX=0;entryY=0.5;entryDx=0;entryDy=0;strokeColor=#00aaff;" parent="1" edge="1">
          <mxGeometry relative="1" as="geometry">
            <mxPoint x="679.96" y="110" as="sourcePoint" />
            <mxPoint x="729.96" y="110" as="targetPoint" />
          </mxGeometry>
        </mxCell>
        <mxCell id="G-ZYmDcAasmDePGd7KIV-13" style="edgeStyle=orthogonalEdgeStyle;rounded=0;orthogonalLoop=1;jettySize=auto;html=1;exitX=1;exitY=0.5;exitDx=0;exitDy=0;entryX=0;entryY=0.5;entryDx=0;entryDy=0;strokeColor=#00aaff;" parent="1" edge="1">
          <mxGeometry relative="1" as="geometry">
            <mxPoint x="679.96" y="30" as="sourcePoint" />
            <mxPoint x="729.96" y="30" as="targetPoint" />
          </mxGeometry>
        </mxCell>
        <mxCell id="G-ZYmDcAasmDePGd7KIV-20" style="edgeStyle=orthogonalEdgeStyle;rounded=0;orthogonalLoop=1;jettySize=auto;html=1;exitX=1;exitY=0.5;exitDx=0;exitDy=0;entryX=0;entryY=0.5;entryDx=0;entryDy=0;strokeColor=#00aaff;" parent="1" source="G-ZYmDcAasmDePGd7KIV-14" target="k5BJldiz395Oj-r77fWC-58" edge="1">
          <mxGeometry relative="1" as="geometry">
            <Array as="points">
              <mxPoint x="1370" y="110" />
            </Array>
            <mxPoint x="1189.96" y="125" as="sourcePoint" />
            <mxPoint x="1269.96" y="285" as="targetPoint" />
          </mxGeometry>
        </mxCell>
        <mxCell id="U_seq89SvIfnm0BxQjWQ-61" style="edgeStyle=orthogonalEdgeStyle;rounded=0;orthogonalLoop=1;jettySize=auto;html=1;exitX=1;exitY=0.5;exitDx=0;exitDy=0;entryX=0.25;entryY=0;entryDx=0;entryDy=0;strokeColor=#00aaff;" parent="1" source="G-ZYmDcAasmDePGd7KIV-14" target="k5BJldiz395Oj-r77fWC-62" edge="1">
          <mxGeometry relative="1" as="geometry" />
        </mxCell>
        <mxCell id="G-ZYmDcAasmDePGd7KIV-14" value="CtrlMEM" style="rounded=0;whiteSpace=wrap;html=1;fontStyle=1;strokeColor=#00aaff;fontColor=#00aaff;fontSize=10;" parent="1" vertex="1">
          <mxGeometry x="1240" y="100" width="50" height="20" as="geometry" />
        </mxCell>
        <mxCell id="G-ZYmDcAasmDePGd7KIV-21" style="edgeStyle=orthogonalEdgeStyle;rounded=0;orthogonalLoop=1;jettySize=auto;html=1;exitX=1;exitY=0.5;exitDx=0;exitDy=0;entryX=0;entryY=0.5;entryDx=0;entryDy=0;strokeColor=#00aaff;" parent="1" source="G-ZYmDcAasmDePGd7KIV-15" target="G-ZYmDcAasmDePGd7KIV-16" edge="1">
          <mxGeometry relative="1" as="geometry">
            <Array as="points">
              <mxPoint x="1530" y="70" />
              <mxPoint x="1530" y="110" />
            </Array>
          </mxGeometry>
        </mxCell>
        <mxCell id="U_seq89SvIfnm0BxQjWQ-7" style="edgeStyle=orthogonalEdgeStyle;rounded=0;orthogonalLoop=1;jettySize=auto;html=1;exitX=1;exitY=0.5;exitDx=0;exitDy=0;entryX=0.75;entryY=0;entryDx=0;entryDy=0;strokeColor=#00aaff;" parent="1" source="G-ZYmDcAasmDePGd7KIV-14" target="k5BJldiz395Oj-r77fWC-62" edge="1">
          <mxGeometry relative="1" as="geometry">
            <Array as="points">
              <mxPoint x="1510" y="110" />
            </Array>
          </mxGeometry>
        </mxCell>
        <mxCell id="U_seq89SvIfnm0BxQjWQ-37" style="edgeStyle=orthogonalEdgeStyle;rounded=0;orthogonalLoop=1;jettySize=auto;html=1;exitX=1;exitY=0.5;exitDx=0;exitDy=0;entryX=1;entryY=0;entryDx=0;entryDy=0;strokeColor=#00aaff;" parent="1" source="G-ZYmDcAasmDePGd7KIV-15" target="U_seq89SvIfnm0BxQjWQ-21" edge="1">
          <mxGeometry relative="1" as="geometry">
            <Array as="points">
              <mxPoint x="1310" y="70" />
              <mxPoint x="1310" y="790" />
            </Array>
          </mxGeometry>
        </mxCell>
        <mxCell id="U_seq89SvIfnm0BxQjWQ-67" style="edgeStyle=orthogonalEdgeStyle;rounded=0;orthogonalLoop=1;jettySize=auto;html=1;exitX=1;exitY=0.5;exitDx=0;exitDy=0;entryX=1;entryY=0.25;entryDx=0;entryDy=0;strokeColor=#00aaff;strokeWidth=3;" parent="1" source="G-ZYmDcAasmDePGd7KIV-15" target="G-ZYmDcAasmDePGd7KIV-39" edge="1">
          <mxGeometry relative="1" as="geometry">
            <Array as="points">
              <mxPoint x="1310" y="70" />
              <mxPoint x="1310" y="740" />
              <mxPoint x="850" y="740" />
              <mxPoint x="850" y="820" />
            </Array>
          </mxGeometry>
        </mxCell>
        <mxCell id="G-ZYmDcAasmDePGd7KIV-15" value="CtrlWB" style="rounded=0;whiteSpace=wrap;html=1;fontStyle=1;strokeColor=#00aaff;fontColor=#00aaff;fontSize=10;" parent="1" vertex="1">
          <mxGeometry x="1240" y="60" width="50" height="20" as="geometry" />
        </mxCell>
        <mxCell id="G-ZYmDcAasmDePGd7KIV-22" style="edgeStyle=orthogonalEdgeStyle;rounded=0;orthogonalLoop=1;jettySize=auto;html=1;exitX=1;exitY=0.5;exitDx=0;exitDy=0;entryX=0;entryY=0.5;entryDx=0;entryDy=0;strokeColor=#00aaff;" parent="1" source="G-ZYmDcAasmDePGd7KIV-16" target="k5BJldiz395Oj-r77fWC-73" edge="1">
          <mxGeometry relative="1" as="geometry" />
        </mxCell>
        <mxCell id="G-ZYmDcAasmDePGd7KIV-27" style="edgeStyle=orthogonalEdgeStyle;rounded=0;orthogonalLoop=1;jettySize=auto;html=1;exitX=1;exitY=0.5;exitDx=0;exitDy=0;entryX=0.5;entryY=0;entryDx=0;entryDy=0;strokeColor=#00aaff;" parent="1" source="G-ZYmDcAasmDePGd7KIV-16" target="k5BJldiz395Oj-r77fWC-4" edge="1">
          <mxGeometry relative="1" as="geometry">
            <Array as="points">
              <mxPoint x="1680" y="110" />
              <mxPoint x="1680" y="170" />
              <mxPoint x="620" y="170" />
            </Array>
          </mxGeometry>
        </mxCell>
        <mxCell id="G-ZYmDcAasmDePGd7KIV-35" style="edgeStyle=orthogonalEdgeStyle;rounded=0;orthogonalLoop=1;jettySize=auto;html=1;exitX=1;exitY=0.5;exitDx=0;exitDy=0;entryX=0;entryY=0.5;entryDx=0;entryDy=0;strokeColor=#00aaff;" parent="1" source="G-ZYmDcAasmDePGd7KIV-16" target="k5BJldiz395Oj-r77fWC-4" edge="1">
          <mxGeometry relative="1" as="geometry">
            <Array as="points">
              <mxPoint x="1680" y="110" />
              <mxPoint x="1680" y="170" />
              <mxPoint x="540" y="170" />
              <mxPoint x="540" y="360" />
            </Array>
          </mxGeometry>
        </mxCell>
        <mxCell id="U_seq89SvIfnm0BxQjWQ-38" style="edgeStyle=orthogonalEdgeStyle;rounded=0;orthogonalLoop=1;jettySize=auto;html=1;exitX=1;exitY=0.5;exitDx=0;exitDy=0;entryX=1;entryY=0.25;entryDx=0;entryDy=0;strokeColor=#00aaff;" parent="1" source="G-ZYmDcAasmDePGd7KIV-16" target="U_seq89SvIfnm0BxQjWQ-21" edge="1">
          <mxGeometry relative="1" as="geometry">
            <Array as="points">
              <mxPoint x="1680" y="110" />
              <mxPoint x="1680" y="820" />
            </Array>
          </mxGeometry>
        </mxCell>
        <mxCell id="U_seq89SvIfnm0BxQjWQ-69" style="edgeStyle=orthogonalEdgeStyle;rounded=0;orthogonalLoop=1;jettySize=auto;html=1;exitX=1;exitY=0.5;exitDx=0;exitDy=0;entryX=1;entryY=0.75;entryDx=0;entryDy=0;strokeColor=#00aaff;strokeWidth=3;" parent="1" source="G-ZYmDcAasmDePGd7KIV-16" target="G-ZYmDcAasmDePGd7KIV-39" edge="1">
          <mxGeometry relative="1" as="geometry">
            <Array as="points">
              <mxPoint x="1680" y="110" />
              <mxPoint x="1680" y="760" />
              <mxPoint x="870" y="760" />
              <mxPoint x="870" y="880" />
            </Array>
          </mxGeometry>
        </mxCell>
        <mxCell id="G-ZYmDcAasmDePGd7KIV-16" value="CtrlWB" style="rounded=0;whiteSpace=wrap;html=1;fontStyle=1;strokeColor=#00aaff;fontColor=#00aaff;fontSize=10;" parent="1" vertex="1">
          <mxGeometry x="1600" y="100" width="50" height="20" as="geometry" />
        </mxCell>
        <mxCell id="G-ZYmDcAasmDePGd7KIV-24" value="aluop&#xa;cmpop&#xa;alumux1_sel&#xa;alumux2_sel&#xa;cmpmux_sel" style="text;html=1;strokeColor=none;fillColor=none;align=left;verticalAlign=middle;whiteSpace=wrap;rounded=0;fontFamily=Lucida Console;fontSize=9;fontColor=#00aaff;" parent="1" vertex="1">
          <mxGeometry x="1013" y="180" width="60" height="60" as="geometry" />
        </mxCell>
        <mxCell id="G-ZYmDcAasmDePGd7KIV-37" style="edgeStyle=orthogonalEdgeStyle;rounded=0;orthogonalLoop=1;jettySize=auto;html=1;exitX=0.5;exitY=0;exitDx=0;exitDy=0;entryX=1;entryY=0.5;entryDx=0;entryDy=0;strokeColor=#00aaff;" parent="1" source="U_seq89SvIfnm0BxQjWQ-1" target="TZYWT3lJkHQqS_gbnJa5-3" edge="1">
          <mxGeometry relative="1" as="geometry">
            <Array as="points">
              <mxPoint x="1190" y="545" />
              <mxPoint x="1190" y="640" />
              <mxPoint x="100" y="640" />
            </Array>
            <mxPoint x="1520.04" y="539.9999999999998" as="sourcePoint" />
          </mxGeometry>
        </mxCell>
        <mxCell id="G-ZYmDcAasmDePGd7KIV-36" value="&lt;font style=&quot;font-size: 8px;&quot; face=&quot;Lucida Console&quot;&gt;rd&lt;br&gt;&lt;/font&gt;" style="text;html=1;strokeColor=none;fillColor=none;align=left;verticalAlign=middle;whiteSpace=wrap;rounded=0;fontColor=#00aaff;" parent="1" vertex="1">
          <mxGeometry x="559.96" y="354" width="30" height="10" as="geometry" />
        </mxCell>
        <mxCell id="G-ZYmDcAasmDePGd7KIV-41" style="edgeStyle=orthogonalEdgeStyle;rounded=0;orthogonalLoop=1;jettySize=auto;html=1;exitX=0;exitY=0;exitDx=0;exitDy=0;entryX=0.5;entryY=1;entryDx=0;entryDy=0;strokeColor=#00c020;" parent="1" source="G-ZYmDcAasmDePGd7KIV-39" target="TZYWT3lJkHQqS_gbnJa5-10" edge="1">
          <mxGeometry relative="1" as="geometry">
            <Array as="points">
              <mxPoint x="730" y="790" />
              <mxPoint x="730" y="700" />
              <mxPoint x="435" y="700" />
            </Array>
          </mxGeometry>
        </mxCell>
        <mxCell id="G-ZYmDcAasmDePGd7KIV-42" style="edgeStyle=orthogonalEdgeStyle;rounded=0;orthogonalLoop=1;jettySize=auto;html=1;exitX=0.5;exitY=0;exitDx=0;exitDy=0;entryX=0.5;entryY=1;entryDx=0;entryDy=0;strokeColor=#00c020;" parent="1" source="G-ZYmDcAasmDePGd7KIV-39" target="k5BJldiz395Oj-r77fWC-11" edge="1">
          <mxGeometry relative="1" as="geometry">
            <Array as="points">
              <mxPoint x="755" y="660" />
              <mxPoint x="755" y="660" />
            </Array>
          </mxGeometry>
        </mxCell>
        <mxCell id="G-ZYmDcAasmDePGd7KIV-43" style="edgeStyle=orthogonalEdgeStyle;rounded=0;orthogonalLoop=1;jettySize=auto;html=1;exitX=0.75;exitY=0;exitDx=0;exitDy=0;entryX=0.5;entryY=1;entryDx=0;entryDy=0;strokeColor=#00c020;" parent="1" source="G-ZYmDcAasmDePGd7KIV-39" target="k5BJldiz395Oj-r77fWC-30" edge="1">
          <mxGeometry relative="1" as="geometry">
            <Array as="points">
              <mxPoint x="780" y="790" />
              <mxPoint x="780" y="700" />
              <mxPoint x="1265" y="700" />
            </Array>
          </mxGeometry>
        </mxCell>
        <mxCell id="G-ZYmDcAasmDePGd7KIV-44" style="edgeStyle=orthogonalEdgeStyle;rounded=0;orthogonalLoop=1;jettySize=auto;html=1;exitX=1;exitY=0;exitDx=0;exitDy=0;entryX=0.5;entryY=1;entryDx=0;entryDy=0;strokeColor=#00c020;" parent="1" source="G-ZYmDcAasmDePGd7KIV-39" target="k5BJldiz395Oj-r77fWC-66" edge="1">
          <mxGeometry relative="1" as="geometry">
            <Array as="points">
              <mxPoint x="805" y="790" />
              <mxPoint x="805" y="720" />
              <mxPoint x="1625" y="720" />
            </Array>
            <mxPoint x="829.96" y="740" as="sourcePoint" />
            <mxPoint x="1630" y="530" as="targetPoint" />
          </mxGeometry>
        </mxCell>
        <mxCell id="U_seq89SvIfnm0BxQjWQ-9" style="edgeStyle=orthogonalEdgeStyle;rounded=0;orthogonalLoop=1;jettySize=auto;html=1;exitX=0;exitY=0;exitDx=0;exitDy=0;entryX=0.5;entryY=1;entryDx=0;entryDy=0;strokeColor=#00c020;" parent="1" source="G-ZYmDcAasmDePGd7KIV-39" target="TZYWT3lJkHQqS_gbnJa5-2" edge="1">
          <mxGeometry relative="1" as="geometry">
            <mxPoint x="734.96" y="680" as="sourcePoint" />
            <mxPoint x="169.96000000000004" y="380" as="targetPoint" />
            <Array as="points">
              <mxPoint x="730" y="790" />
              <mxPoint x="730" y="700" />
              <mxPoint x="175" y="700" />
            </Array>
          </mxGeometry>
        </mxCell>
        <mxCell id="G-ZYmDcAasmDePGd7KIV-39" value="Hazard&lt;br&gt;Detection&lt;br&gt;&amp;amp; Control" style="rounded=0;whiteSpace=wrap;html=1;fontStyle=0;fontSize=20;strokeWidth=2;fontColor=#00c020;strokeColor=#00c020;" parent="1" vertex="1">
          <mxGeometry x="704.96" y="790" width="120" height="120" as="geometry" />
        </mxCell>
        <mxCell id="gd78JNTZqdq3sEy_yZhr-2" value="MEM:PC&lt;br&gt;32&#39;" style="rounded=0;whiteSpace=wrap;html=1;fontStyle=1" parent="1" vertex="1">
          <mxGeometry x="1590" y="250" width="70" height="40" as="geometry" />
        </mxCell>
        <mxCell id="U_seq89SvIfnm0BxQjWQ-1" value="" style="shape=trapezoid;perimeter=trapezoidPerimeter;whiteSpace=wrap;html=1;fixedSize=1;rotation=90;size=10;fontSize=9;strokeColor=#00aaff;" parent="1" vertex="1">
          <mxGeometry x="1134.98" y="535.02" width="49.96" height="20" as="geometry" />
        </mxCell>
        <mxCell id="U_seq89SvIfnm0BxQjWQ-6" value="is_branch" style="text;html=1;strokeColor=none;fillColor=none;align=center;verticalAlign=middle;whiteSpace=wrap;rounded=0;fontFamily=Lucida Console;fontSize=9;fontColor=#00aaff;rotation=90;" parent="1" vertex="1">
          <mxGeometry x="1136.96" y="474" width="60" height="12" as="geometry" />
        </mxCell>
        <mxCell id="U_seq89SvIfnm0BxQjWQ-8" value="&lt;div style=&quot;&quot;&gt;&lt;span style=&quot;font-size: 8px; font-family: &amp;quot;Lucida Console&amp;quot;; background-color: initial;&quot;&gt;read/write&lt;/span&gt;&lt;/div&gt;" style="text;html=1;strokeColor=none;fillColor=none;align=center;verticalAlign=middle;whiteSpace=wrap;rounded=0;fontColor=#00aaff;" parent="1" vertex="1">
          <mxGeometry x="1485" y="301" width="50" height="10" as="geometry" />
        </mxCell>
        <mxCell id="U_seq89SvIfnm0BxQjWQ-10" value="&lt;div style=&quot;&quot;&gt;&lt;span style=&quot;font-size: 8px; font-family: &amp;quot;Lucida Console&amp;quot;; background-color: initial;&quot;&gt;load&lt;/span&gt;&lt;/div&gt;" style="text;html=1;strokeColor=none;fillColor=none;align=center;verticalAlign=middle;whiteSpace=wrap;rounded=0;fontColor=#00aaff;" parent="1" vertex="1">
          <mxGeometry x="604.96" y="301" width="30" height="10" as="geometry" />
        </mxCell>
        <mxCell id="U_seq89SvIfnm0BxQjWQ-22" style="edgeStyle=orthogonalEdgeStyle;rounded=0;orthogonalLoop=1;jettySize=auto;html=1;entryX=1;entryY=0.5;entryDx=0;entryDy=0;strokeColor=#8000ff;exitX=0.5;exitY=0;exitDx=0;exitDy=0;" parent="1" source="U_seq89SvIfnm0BxQjWQ-21" target="k5BJldiz395Oj-r77fWC-39" edge="1">
          <mxGeometry relative="1" as="geometry">
            <mxPoint x="990" y="720" as="sourcePoint" />
            <Array as="points">
              <mxPoint x="1030" y="350" />
              <mxPoint x="1010" y="350" />
            </Array>
          </mxGeometry>
        </mxCell>
        <mxCell id="U_seq89SvIfnm0BxQjWQ-23" style="edgeStyle=orthogonalEdgeStyle;rounded=0;orthogonalLoop=1;jettySize=auto;html=1;entryX=1;entryY=0.5;entryDx=0;entryDy=0;strokeColor=#8000ff;exitX=0.5;exitY=0;exitDx=0;exitDy=0;" parent="1" source="U_seq89SvIfnm0BxQjWQ-21" target="k5BJldiz395Oj-r77fWC-34" edge="1">
          <mxGeometry relative="1" as="geometry">
            <mxPoint x="1090" y="710" as="sourcePoint" />
            <Array as="points">
              <mxPoint x="1030" y="420" />
              <mxPoint x="1010" y="420" />
            </Array>
          </mxGeometry>
        </mxCell>
        <mxCell id="WD0X5AczI45rlbVTmfLI-1" style="edgeStyle=orthogonalEdgeStyle;rounded=0;orthogonalLoop=1;jettySize=auto;html=1;exitX=0;exitY=0.25;exitDx=0;exitDy=0;entryX=1;entryY=0.5;entryDx=0;entryDy=0;strokeColor=#8000ff;" parent="1" source="U_seq89SvIfnm0BxQjWQ-21" target="G-ZYmDcAasmDePGd7KIV-39" edge="1">
          <mxGeometry relative="1" as="geometry">
            <Array as="points">
              <mxPoint x="890" y="820" />
              <mxPoint x="890" y="850" />
            </Array>
          </mxGeometry>
        </mxCell>
        <mxCell id="U_seq89SvIfnm0BxQjWQ-21" value="Data&lt;br&gt;Forwarding&lt;br&gt;Unit" style="rounded=0;whiteSpace=wrap;html=1;fontStyle=0;fontSize=20;strokeWidth=2;fontColor=#8000ff;strokeColor=#8000ff;" parent="1" vertex="1">
          <mxGeometry x="970" y="790" width="120" height="120" as="geometry" />
        </mxCell>
        <mxCell id="U_seq89SvIfnm0BxQjWQ-41" style="edgeStyle=orthogonalEdgeStyle;rounded=0;orthogonalLoop=1;jettySize=auto;html=1;exitX=1;exitY=0.5;exitDx=0;exitDy=0;entryX=0;entryY=0.5;entryDx=0;entryDy=0;strokeColor=#8000ff;strokeWidth=3;" parent="1" source="U_seq89SvIfnm0BxQjWQ-24" target="U_seq89SvIfnm0BxQjWQ-21" edge="1">
          <mxGeometry relative="1" as="geometry">
            <Array as="points">
              <mxPoint x="910" y="960" />
              <mxPoint x="910" y="850" />
            </Array>
          </mxGeometry>
        </mxCell>
        <mxCell id="U_seq89SvIfnm0BxQjWQ-24" value="ID:RS1" style="rounded=0;whiteSpace=wrap;html=1;fontStyle=1;strokeColor=#8000ff;fontColor=#8000ff;fontSize=11;" parent="1" vertex="1">
          <mxGeometry x="729.96" y="950" width="50" height="20" as="geometry" />
        </mxCell>
        <mxCell id="U_seq89SvIfnm0BxQjWQ-42" style="edgeStyle=orthogonalEdgeStyle;rounded=0;orthogonalLoop=1;jettySize=auto;html=1;exitX=1;exitY=0.5;exitDx=0;exitDy=0;entryX=0;entryY=0.75;entryDx=0;entryDy=0;strokeColor=#8000ff;strokeWidth=3;" parent="1" source="U_seq89SvIfnm0BxQjWQ-25" target="U_seq89SvIfnm0BxQjWQ-21" edge="1">
          <mxGeometry relative="1" as="geometry">
            <Array as="points">
              <mxPoint x="930" y="1000" />
              <mxPoint x="930" y="880" />
            </Array>
          </mxGeometry>
        </mxCell>
        <mxCell id="U_seq89SvIfnm0BxQjWQ-44" style="edgeStyle=orthogonalEdgeStyle;rounded=0;orthogonalLoop=1;jettySize=auto;html=1;exitX=1;exitY=0.5;exitDx=0;exitDy=0;entryX=0.25;entryY=1;entryDx=0;entryDy=0;strokeColor=#8000ff;" parent="1" source="U_seq89SvIfnm0BxQjWQ-25" target="U_seq89SvIfnm0BxQjWQ-43" edge="1">
          <mxGeometry relative="1" as="geometry">
            <Array as="points">
              <mxPoint x="930" y="1000" />
              <mxPoint x="930" y="988" />
              <mxPoint x="1020" y="988" />
            </Array>
          </mxGeometry>
        </mxCell>
        <mxCell id="U_seq89SvIfnm0BxQjWQ-25" value="ID:RS2" style="rounded=0;whiteSpace=wrap;html=1;fontStyle=1;strokeColor=#8000ff;fontColor=#8000ff;fontSize=11;" parent="1" vertex="1">
          <mxGeometry x="729.96" y="990" width="50" height="20" as="geometry" />
        </mxCell>
        <mxCell id="U_seq89SvIfnm0BxQjWQ-45" style="edgeStyle=orthogonalEdgeStyle;rounded=0;orthogonalLoop=1;jettySize=auto;html=1;exitX=1;exitY=0.5;exitDx=0;exitDy=0;entryX=0.75;entryY=1;entryDx=0;entryDy=0;strokeColor=#8000ff;" parent="1" source="U_seq89SvIfnm0BxQjWQ-26" target="U_seq89SvIfnm0BxQjWQ-43" edge="1">
          <mxGeometry relative="1" as="geometry">
            <Array as="points">
              <mxPoint x="950" y="1040" />
              <mxPoint x="950" y="1013" />
            </Array>
          </mxGeometry>
        </mxCell>
        <mxCell id="U_seq89SvIfnm0BxQjWQ-26" value="ID:RD" style="rounded=0;whiteSpace=wrap;html=1;fontStyle=1;strokeColor=#8000ff;fontColor=#8000ff;fontSize=11;" parent="1" vertex="1">
          <mxGeometry x="729.96" y="1030" width="50" height="20" as="geometry" />
        </mxCell>
        <mxCell id="U_seq89SvIfnm0BxQjWQ-34" style="edgeStyle=orthogonalEdgeStyle;rounded=0;orthogonalLoop=1;jettySize=auto;html=1;exitX=1;exitY=0.5;exitDx=0;exitDy=0;entryX=0;entryY=0.5;entryDx=0;entryDy=0;strokeColor=#8000ff;" parent="1" source="U_seq89SvIfnm0BxQjWQ-30" target="U_seq89SvIfnm0BxQjWQ-31" edge="1">
          <mxGeometry relative="1" as="geometry" />
        </mxCell>
        <mxCell id="U_seq89SvIfnm0BxQjWQ-35" style="edgeStyle=orthogonalEdgeStyle;rounded=0;orthogonalLoop=1;jettySize=auto;html=1;exitX=1;exitY=0.5;exitDx=0;exitDy=0;entryX=1;entryY=0.75;entryDx=0;entryDy=0;strokeColor=#8000ff;strokeWidth=3;" parent="1" source="U_seq89SvIfnm0BxQjWQ-30" target="U_seq89SvIfnm0BxQjWQ-21" edge="1">
          <mxGeometry relative="1" as="geometry" />
        </mxCell>
        <mxCell id="U_seq89SvIfnm0BxQjWQ-30" value="EX:RD" style="rounded=0;whiteSpace=wrap;html=1;fontStyle=1;strokeColor=#8000ff;fontColor=#8000ff;fontSize=11;" parent="1" vertex="1">
          <mxGeometry x="1240" y="990" width="50" height="20" as="geometry" />
        </mxCell>
        <mxCell id="U_seq89SvIfnm0BxQjWQ-36" style="edgeStyle=orthogonalEdgeStyle;rounded=0;orthogonalLoop=1;jettySize=auto;html=1;exitX=1;exitY=0.5;exitDx=0;exitDy=0;entryX=1;entryY=0.5;entryDx=0;entryDy=0;strokeColor=#8000ff;strokeWidth=3;" parent="1" source="U_seq89SvIfnm0BxQjWQ-31" target="U_seq89SvIfnm0BxQjWQ-21" edge="1">
          <mxGeometry relative="1" as="geometry" />
        </mxCell>
        <mxCell id="U_seq89SvIfnm0BxQjWQ-31" value="MEM:RD" style="rounded=0;whiteSpace=wrap;html=1;fontStyle=1;strokeColor=#8000ff;fontColor=#8000ff;fontSize=11;" parent="1" vertex="1">
          <mxGeometry x="1590" y="990" width="70" height="20" as="geometry" />
        </mxCell>
        <mxCell id="U_seq89SvIfnm0BxQjWQ-39" value="load_regfile" style="text;html=1;strokeColor=none;fillColor=none;align=left;verticalAlign=middle;whiteSpace=wrap;rounded=0;fontFamily=Lucida Console;fontSize=9;fontColor=#00aaff;" parent="1" vertex="1">
          <mxGeometry x="1100" y="778" width="70" height="10" as="geometry" />
        </mxCell>
        <mxCell id="U_seq89SvIfnm0BxQjWQ-40" value="load_regfile" style="text;html=1;strokeColor=none;fillColor=none;align=left;verticalAlign=middle;whiteSpace=wrap;rounded=0;fontFamily=Lucida Console;fontSize=9;fontColor=#00aaff;" parent="1" vertex="1">
          <mxGeometry x="1100" y="808" width="70" height="10" as="geometry" />
        </mxCell>
        <mxCell id="U_seq89SvIfnm0BxQjWQ-46" style="edgeStyle=orthogonalEdgeStyle;rounded=0;orthogonalLoop=1;jettySize=auto;html=1;exitX=0.5;exitY=0;exitDx=0;exitDy=0;entryX=0;entryY=0.5;entryDx=0;entryDy=0;strokeColor=#8000ff;" parent="1" source="U_seq89SvIfnm0BxQjWQ-43" target="U_seq89SvIfnm0BxQjWQ-30" edge="1">
          <mxGeometry relative="1" as="geometry" />
        </mxCell>
        <mxCell id="U_seq89SvIfnm0BxQjWQ-43" value="" style="shape=trapezoid;perimeter=trapezoidPerimeter;whiteSpace=wrap;html=1;fixedSize=1;rotation=90;size=10;fontSize=9;strokeColor=#8000ff;fontColor=#8000ff;" parent="1" vertex="1">
          <mxGeometry x="1005" y="990" width="50" height="20" as="geometry" />
        </mxCell>
        <mxCell id="U_seq89SvIfnm0BxQjWQ-48" value="opcode" style="text;html=1;strokeColor=none;fillColor=none;align=right;verticalAlign=middle;whiteSpace=wrap;rounded=0;fontFamily=Lucida Console;fontSize=9;fontColor=#00aaff;" parent="1" vertex="1">
          <mxGeometry x="980" y="942" width="50" height="10" as="geometry" />
        </mxCell>
        <mxCell id="U_seq89SvIfnm0BxQjWQ-49" value="if (opcode == LOAD ) choose ID:RS2&lt;br style=&quot;font-size: 6px;&quot;&gt;if (opcode == ARITH) choose ID:RD" style="text;html=1;strokeColor=none;fillColor=none;align=left;verticalAlign=middle;whiteSpace=wrap;rounded=0;fontFamily=Lucida Console;fontSize=6;fontColor=#8000ff;" parent="1" vertex="1">
          <mxGeometry x="967" y="1025" width="150" height="20" as="geometry" />
        </mxCell>
        <mxCell id="U_seq89SvIfnm0BxQjWQ-50" value="valid_ex_1&amp;nbsp; =&amp;nbsp; EX:CtrlWB.load_regfile &amp;amp; (ID:RS1 ==&amp;nbsp; EX:RD != 0)&lt;br&gt;valid_ex_2&amp;nbsp; =&amp;nbsp; EX:CtrlWB.load_regfile &amp;amp; (ID:RS2 ==&amp;nbsp; EX:RD != 0)&lt;br&gt;valid_mem_1 = MEM:CtrlWB.load_regfile &amp;amp; (ID:RS1 == MEM:RD != 0)&lt;br style=&quot;border-color: var(--border-color);&quot;&gt;valid_mem_2 = MEM:CtrlWB.load_regfile &amp;amp; (ID:RS2 == MEM:RD != 0)&lt;br&gt;if&amp;nbsp; &amp;nbsp;(valid_ex_1)&amp;nbsp; Forward EX:ALU to ALUMUX1&lt;br&gt;elif (valid_mem_1) Forward regfilemux_out to ALUMUX1&lt;br&gt;if&amp;nbsp; &amp;nbsp;(valid_ex_2)&amp;nbsp; Forward EX:ALU to ALUMUX2&lt;br style=&quot;border-color: var(--border-color);&quot;&gt;elif (valid_mem_2) Forward regfilemux_out to ALUMUX2" style="text;html=1;strokeColor=none;fillColor=none;align=left;verticalAlign=middle;whiteSpace=wrap;rounded=0;fontFamily=Lucida Console;fontSize=6;fontColor=#8000ff;" parent="1" vertex="1">
          <mxGeometry x="1055" y="920" width="255" height="60" as="geometry" />
        </mxCell>
        <mxCell id="U_seq89SvIfnm0BxQjWQ-57" value="rdata[256]&lt;br style=&quot;font-size: 10px;&quot;&gt;resp" style="edgeStyle=orthogonalEdgeStyle;rounded=0;orthogonalLoop=1;jettySize=auto;html=1;exitX=0.25;exitY=0;exitDx=0;exitDy=0;entryX=0.25;entryY=1;entryDx=0;entryDy=0;strokeColor=#ff8000;fontColor=#ff8000;fontFamily=Lucida Console;fontSize=10;strokeWidth=3;" parent="1" source="U_seq89SvIfnm0BxQjWQ-54" target="TZYWT3lJkHQqS_gbnJa5-1" edge="1">
          <mxGeometry relative="1" as="geometry" />
        </mxCell>
        <mxCell id="U_seq89SvIfnm0BxQjWQ-65" value="addr[32]&lt;br style=&quot;font-size: 10px;&quot;&gt;wdata[64]&lt;br style=&quot;font-size: 10px;&quot;&gt;read&lt;br style=&quot;font-size: 10px;&quot;&gt;write" style="edgeStyle=orthogonalEdgeStyle;rounded=0;orthogonalLoop=1;jettySize=auto;html=1;exitX=0;exitY=0.25;exitDx=0;exitDy=0;entryX=1;entryY=0.25;entryDx=0;entryDy=0;strokeColor=#ff8000;fontColor=#ff8000;fontFamily=Lucida Console;fontSize=10;" parent="1" source="U_seq89SvIfnm0BxQjWQ-54" target="U_seq89SvIfnm0BxQjWQ-55" edge="1">
          <mxGeometry relative="1" as="geometry" />
        </mxCell>
        <mxCell id="U_seq89SvIfnm0BxQjWQ-81" style="edgeStyle=orthogonalEdgeStyle;rounded=0;orthogonalLoop=1;jettySize=auto;html=1;exitX=1;exitY=0.5;exitDx=0;exitDy=0;entryX=0;entryY=0.5;entryDx=0;entryDy=0;strokeColor=#ff8000;" parent="1" source="U_seq89SvIfnm0BxQjWQ-54" target="G-ZYmDcAasmDePGd7KIV-39" edge="1">
          <mxGeometry relative="1" as="geometry" />
        </mxCell>
        <mxCell id="U_seq89SvIfnm0BxQjWQ-54" value="Arbiter" style="rounded=0;whiteSpace=wrap;html=1;fontStyle=0;fontSize=20;strokeWidth=2;fontColor=#ff8000;strokeColor=#ff8000;" parent="1" vertex="1">
          <mxGeometry x="239.96000000000004" y="790" width="120" height="120" as="geometry" />
        </mxCell>
        <mxCell id="U_seq89SvIfnm0BxQjWQ-66" value="rdata[64]&lt;br style=&quot;font-size: 10px;&quot;&gt;resp" style="edgeStyle=orthogonalEdgeStyle;rounded=0;orthogonalLoop=1;jettySize=auto;html=1;exitX=1;exitY=0.75;exitDx=0;exitDy=0;entryX=0;entryY=0.75;entryDx=0;entryDy=0;strokeColor=#ff8000;fontColor=#ff8000;fontFamily=Lucida Console;fontSize=10;" parent="1" source="U_seq89SvIfnm0BxQjWQ-55" target="U_seq89SvIfnm0BxQjWQ-54" edge="1">
          <mxGeometry relative="1" as="geometry" />
        </mxCell>
        <mxCell id="U_seq89SvIfnm0BxQjWQ-55" value="Physical&lt;br&gt;Memory" style="rounded=0;whiteSpace=wrap;html=1;fontStyle=0;fontSize=20;strokeWidth=2;fontColor=#ff8000;strokeColor=#ff8000;" parent="1" vertex="1">
          <mxGeometry x="29.960000000000036" y="790" width="120" height="120" as="geometry" />
        </mxCell>
        <mxCell id="U_seq89SvIfnm0BxQjWQ-62" value="&lt;div style=&quot;&quot;&gt;&lt;span style=&quot;font-size: 8px; font-family: &amp;quot;Lucida Console&amp;quot;; background-color: initial;&quot;&gt;mask&lt;/span&gt;&lt;/div&gt;" style="text;html=1;strokeColor=none;fillColor=none;align=center;verticalAlign=middle;whiteSpace=wrap;rounded=0;fontColor=#00aaff;" parent="1" vertex="1">
          <mxGeometry x="1435" y="301" width="30" height="10" as="geometry" />
        </mxCell>
        <mxCell id="U_seq89SvIfnm0BxQjWQ-63" value="&lt;div style=&quot;&quot;&gt;&lt;span style=&quot;font-size: 8px; font-family: &amp;quot;Lucida Console&amp;quot;; background-color: initial;&quot;&gt;opcode&lt;/span&gt;&lt;/div&gt;&lt;div style=&quot;&quot;&gt;&lt;span style=&quot;font-size: 8px; font-family: &amp;quot;Lucida Console&amp;quot;; background-color: initial;&quot;&gt;funct3&lt;/span&gt;&lt;/div&gt;" style="text;html=1;strokeColor=none;fillColor=none;align=center;verticalAlign=middle;whiteSpace=wrap;rounded=0;fontColor=#00aaff;rotation=90;" parent="1" vertex="1">
          <mxGeometry x="1432" y="190" width="40" height="30" as="geometry" />
        </mxCell>
        <mxCell id="U_seq89SvIfnm0BxQjWQ-70" value="rs1&lt;br style=&quot;font-size: 7px;&quot;&gt;rs2&lt;br style=&quot;font-size: 7px;&quot;&gt;rd" style="text;html=1;strokeColor=none;fillColor=none;align=left;verticalAlign=middle;whiteSpace=wrap;rounded=0;fontFamily=Lucida Console;fontSize=7;fontColor=#00aaff;fontStyle=1" parent="1" vertex="1">
          <mxGeometry x="839.96" y="819" width="20" height="32" as="geometry" />
        </mxCell>
        <mxCell id="U_seq89SvIfnm0BxQjWQ-71" value="rs1&lt;br style=&quot;font-size: 7px;&quot;&gt;rs2&lt;br style=&quot;font-size: 7px;&quot;&gt;rd" style="text;html=1;strokeColor=none;fillColor=none;align=left;verticalAlign=middle;whiteSpace=wrap;rounded=0;fontFamily=Lucida Console;fontSize=7;fontColor=#00aaff;fontStyle=1" parent="1" vertex="1">
          <mxGeometry x="839.96" y="879" width="20" height="32" as="geometry" />
        </mxCell>
        <mxCell id="U_seq89SvIfnm0BxQjWQ-74" value="rs1&lt;br style=&quot;font-size: 7px;&quot;&gt;rs2&lt;br style=&quot;font-size: 7px;&quot;&gt;rd" style="text;html=1;strokeColor=none;fillColor=none;align=left;verticalAlign=middle;whiteSpace=wrap;rounded=0;fontFamily=Lucida Console;fontSize=7;fontColor=#00aaff;fontStyle=1" parent="1" vertex="1">
          <mxGeometry x="670.96" y="819" width="20" height="32" as="geometry" />
        </mxCell>
        <mxCell id="U_seq89SvIfnm0BxQjWQ-75" value="rs1&lt;br style=&quot;font-size: 7px;&quot;&gt;rs2&lt;br style=&quot;font-size: 7px;&quot;&gt;rd" style="text;html=1;strokeColor=none;fillColor=none;align=left;verticalAlign=middle;whiteSpace=wrap;rounded=0;fontFamily=Lucida Console;fontSize=7;fontColor=#00aaff;fontStyle=1" parent="1" vertex="1">
          <mxGeometry x="670.96" y="879" width="20" height="32" as="geometry" />
        </mxCell>
        <mxCell id="U_seq89SvIfnm0BxQjWQ-77" value="Datapath" style="text;html=1;strokeColor=none;fillColor=none;align=left;verticalAlign=middle;whiteSpace=wrap;rounded=0;fontStyle=1;fontSize=36;fontColor=#ff0080;" parent="1" vertex="1">
          <mxGeometry x="5" y="110" width="60" height="30" as="geometry" />
        </mxCell>
        <mxCell id="U_seq89SvIfnm0BxQjWQ-80" value="All states =&lt;br&gt;&amp;nbsp; &amp;nbsp; IDLE,&lt;br&gt;&amp;nbsp; &amp;nbsp; SERVE_IR, DONE_IR,&lt;br&gt;&amp;nbsp; &amp;nbsp; SERVE_DR, DONE_DR,&lt;br&gt;&amp;nbsp; &amp;nbsp; SERVE_DW, DONE_DW&lt;br&gt;Start at IDLE&lt;br&gt;&lt;br&gt;IDLE:&lt;br&gt;&amp;nbsp; &amp;nbsp; if&amp;nbsp; &amp;nbsp;(i_read)&amp;nbsp; Move to SERVE_IR&lt;br&gt;&amp;nbsp; &amp;nbsp; elif (d_read)&amp;nbsp; Move to SERVE_DR&lt;br&gt;&amp;nbsp; &amp;nbsp; elif (d_write) Move to SERVE_DW&lt;br&gt;&lt;br&gt;SERVE_IR:&lt;br&gt;&amp;nbsp; &amp;nbsp; p_addr&amp;nbsp; = i_addr&lt;br&gt;&amp;nbsp; &amp;nbsp; p_read&amp;nbsp; = 1&lt;br&gt;&amp;nbsp; &amp;nbsp; if (p_resp) Move to DONE_IR&lt;br&gt;&lt;br&gt;DONE_IR:&lt;br&gt;&amp;nbsp; &amp;nbsp; i_rdata = p_rdata&lt;br&gt;&amp;nbsp; &amp;nbsp; i_resp&amp;nbsp; = 1&lt;br&gt;&amp;nbsp; &amp;nbsp; Move to IDLE&lt;br style=&quot;border-color: var(--border-color);&quot;&gt;&lt;br style=&quot;border-color: var(--border-color);&quot;&gt;SERVE_DR:&lt;br style=&quot;border-color: var(--border-color);&quot;&gt;&amp;nbsp; &amp;nbsp; p_addr&amp;nbsp; = d_addr&lt;br style=&quot;border-color: var(--border-color);&quot;&gt;&amp;nbsp; &amp;nbsp; p_read&amp;nbsp; = 1&lt;br style=&quot;border-color: var(--border-color);&quot;&gt;&amp;nbsp; &amp;nbsp; if (p_resp) Move to DONE_DR&lt;br style=&quot;border-color: var(--border-color);&quot;&gt;&lt;br style=&quot;border-color: var(--border-color);&quot;&gt;DONE_DR:&lt;br&gt;&amp;nbsp; &amp;nbsp; d_rdata = p_rdata&lt;br style=&quot;border-color: var(--border-color);&quot;&gt;&amp;nbsp; &amp;nbsp; d_resp&amp;nbsp; = 1&lt;br style=&quot;border-color: var(--border-color);&quot;&gt;&amp;nbsp; &amp;nbsp; Move to IDLE&lt;br style=&quot;border-color: var(--border-color);&quot;&gt;&lt;br style=&quot;border-color: var(--border-color);&quot;&gt;SERVE_DW:&lt;br style=&quot;border-color: var(--border-color);&quot;&gt;&amp;nbsp; &amp;nbsp; p_addr&amp;nbsp; = d_addr&lt;br&gt;&amp;nbsp; &amp;nbsp; p_wdata = d_wdata&lt;br style=&quot;border-color: var(--border-color);&quot;&gt;&amp;nbsp; &amp;nbsp; p_write = 1&lt;br style=&quot;border-color: var(--border-color);&quot;&gt;&amp;nbsp; &amp;nbsp; if (p_resp) Move to DONE_DW&lt;br style=&quot;border-color: var(--border-color);&quot;&gt;&lt;br style=&quot;border-color: var(--border-color);&quot;&gt;DONE_DW:&lt;br style=&quot;border-color: var(--border-color);&quot;&gt;&amp;nbsp; &amp;nbsp; d_resp&amp;nbsp; = 1&lt;br style=&quot;border-color: var(--border-color);&quot;&gt;&amp;nbsp; &amp;nbsp; Move to IDLE" style="text;html=1;strokeColor=none;fillColor=none;align=left;verticalAlign=middle;whiteSpace=wrap;rounded=0;fontFamily=Lucida Console;fontSize=6;fontColor=#ff8000;" parent="1" vertex="1">
          <mxGeometry x="370" y="730" width="150" height="300" as="geometry" />
        </mxCell>
        <mxCell id="U_seq89SvIfnm0BxQjWQ-82" value="&lt;span style=&quot;font-weight: normal;&quot;&gt;i_resp&lt;br&gt;d_resp&lt;/span&gt;" style="text;html=1;strokeColor=none;fillColor=none;align=left;verticalAlign=middle;whiteSpace=wrap;rounded=0;fontFamily=Lucida Console;fontSize=8;fontColor=#ff8000;fontStyle=1" parent="1" vertex="1">
          <mxGeometry x="580" y="840" width="40" height="20" as="geometry" />
        </mxCell>
        <mxCell id="WD0X5AczI45rlbVTmfLI-2" value="&lt;span style=&quot;font-weight: 400;&quot;&gt;has_hazard&lt;/span&gt;" style="text;html=1;strokeColor=none;fillColor=none;align=left;verticalAlign=middle;whiteSpace=wrap;rounded=0;fontFamily=Lucida Console;fontSize=8;fontColor=#8000ff;fontStyle=1" parent="1" vertex="1">
          <mxGeometry x="889" y="809.5" width="50.04" height="11" as="geometry" />
        </mxCell>
      </root>
    </mxGraphModel>
  </diagram>
</mxfile>
